{"glyphs":{"0":{"ha":940,"x_min":98,"x_max":843,"o":"m 472 60 q 690 168 617 60 q 764 465 764 275 q 690 762 764 653 q 472 871 616 871 q 252 762 326 871 q 178 465 178 654 q 251 168 178 275 q 472 60 325 60 m 98 465 q 122 654 98 566 q 192 808 146 741 q 310 913 237 875 q 472 951 382 951 q 632 913 561 951 q 749 808 703 875 q 819 654 795 741 q 843 465 843 566 q 819 276 843 363 q 749 121 795 188 q 632 17 703 55 q 472 -21 561 -21 q 266 45 352 -21 q 139 219 180 111 q 98 465 98 328 z "},"1":{"ha":361,"x_min":139,"x_max":222,"o":"m 139 947 l 222 947 l 222 0 l 139 0 l 139 947 z "},"2":{"ha":823,"x_min":85,"x_max":743,"o":"m 736 0 l 85 0 q 104 139 85 75 q 157 249 124 203 q 233 334 190 295 q 323 402 276 373 q 418 459 371 432 q 509 511 466 486 q 585 564 552 537 q 637 625 618 591 q 657 700 657 660 q 640 782 659 747 q 586 835 621 817 q 508 862 550 854 q 416 871 467 871 q 258 836 338 871 q 117 753 178 802 l 117 857 q 257 925 177 896 q 416 954 338 954 q 506 947 462 954 q 594 921 550 939 q 671 874 639 902 q 723 800 704 846 q 741 697 743 754 q 722 614 741 654 q 671 543 703 574 q 597 483 639 512 q 510 426 556 453 q 419 371 465 399 q 332 313 374 344 q 259 249 291 282 q 208 173 227 216 q 189 83 189 131 l 736 83 l 736 0 z "},"3":{"ha":730,"x_min":83,"x_max":689,"o":"m 118 903 q 370 953 227 953 q 480 939 431 953 q 560 903 530 925 q 610 851 590 880 q 639 792 631 821 q 647 734 647 764 q 602 611 647 672 q 484 514 557 551 q 689 272 689 436 q 667 164 689 215 q 603 75 644 114 q 496 13 562 36 q 351 -9 431 -9 q 83 37 192 -9 l 83 129 q 149 101 121 111 q 230 83 176 92 q 351 74 283 74 q 542 129 477 74 q 606 272 606 184 q 520 412 606 356 q 294 468 435 468 l 294 551 q 492 606 420 551 q 564 734 564 661 q 370 869 564 869 q 258 860 310 869 q 185 841 207 850 q 127 815 163 832 q 118 811 121 812 l 118 903 z "},"4":{"ha":862,"x_min":83,"x_max":779,"o":"m 183 376 l 521 376 l 521 860 l 183 376 m 83 300 l 83 376 l 488 947 l 604 947 l 604 376 l 779 376 l 779 300 l 604 300 l 604 0 l 521 0 l 521 300 l 83 300 z "},"5":{"ha":730,"x_min":83,"x_max":689,"o":"m 160 947 l 612 947 l 612 864 l 243 864 l 243 583 q 689 289 689 562 q 667 176 689 229 q 603 81 644 123 q 496 15 562 39 q 351 -9 431 -9 q 83 41 190 -9 l 83 135 q 148 104 121 115 q 229 83 176 93 q 351 74 283 74 q 541 134 477 74 q 606 289 606 193 q 583 376 606 338 q 526 435 561 413 q 439 472 491 458 q 338 493 387 487 q 228 501 289 499 l 160 501 l 160 947 z "},"6":{"ha":787,"x_min":83,"x_max":704,"o":"m 83 336 q 96 462 83 401 q 127 573 108 523 q 179 671 147 623 q 242 759 210 720 q 318 837 275 797 q 400 908 362 878 q 486 974 437 938 l 536 907 q 427 822 472 859 q 333 735 381 784 q 251 632 285 686 q 196 518 216 578 q 281 559 235 543 q 375 579 327 575 q 471 577 424 583 q 561 549 519 571 q 634 492 602 526 q 685 404 667 458 q 704 282 704 350 q 679 164 704 220 q 611 70 653 109 q 514 9 570 31 q 399 -14 458 -14 q 324 -6 361 -14 q 241 24 286 1 q 163 84 197 47 q 106 186 129 121 q 83 336 83 252 m 167 336 q 182 220 167 270 q 221 142 198 170 q 277 97 244 115 q 338 75 309 80 q 399 69 367 69 q 557 129 493 69 q 621 282 621 189 q 523 479 621 423 q 347 502 448 523 q 205 428 258 484 q 167 336 167 386 z "},"7":{"ha":680,"x_min":83,"x_max":642,"o":"m 642 947 l 261 0 l 172 0 l 522 871 l 83 871 l 83 947 l 642 947 z "},"8":{"ha":780,"x_min":83,"x_max":697,"o":"m 392 68 q 554 129 488 68 q 619 279 619 190 q 555 428 619 370 q 392 486 491 486 q 226 428 291 486 q 161 279 161 370 q 227 129 161 189 q 392 68 292 68 m 83 279 q 129 427 83 361 q 253 530 174 493 q 170 612 199 562 q 140 721 140 661 q 214 887 140 819 q 392 956 288 956 q 567 887 494 956 q 640 721 640 819 q 611 612 640 662 q 529 530 581 562 q 652 427 607 494 q 697 279 697 360 q 656 135 697 202 q 544 28 614 68 q 392 -11 473 -11 q 174 75 265 -11 q 83 279 83 161 m 215 721 q 264 605 215 650 q 392 559 314 559 q 517 605 468 559 q 566 721 566 650 q 517 836 566 791 q 392 880 468 880 q 264 836 314 880 q 215 721 215 791 z "},"9":{"ha":833,"x_min":83,"x_max":704,"o":"m 689 760 l 692 750 q 704 632 704 699 q 683 459 704 541 q 626 311 663 378 q 534 183 589 245 q 416 73 479 122 q 272 -26 353 23 l 228 46 q 485 252 391 144 q 608 501 580 359 q 510 440 566 463 q 396 409 454 416 q 282 416 338 402 q 181 460 225 429 q 111 550 138 492 q 83 686 83 608 q 109 804 83 749 q 176 899 134 860 q 273 960 218 937 q 389 982 329 982 q 450 977 419 982 q 518 957 481 972 q 588 918 556 941 q 647 853 619 894 q 689 760 675 812 m 167 686 q 256 507 167 559 q 424 486 328 465 q 569 570 515 507 q 611 729 629 640 q 389 899 572 899 q 231 839 294 899 q 167 686 167 779 z "}," ":{"ha":486,"x_min":0,"x_max":0,"o":""},"!":{"ha":389,"x_min":139,"x_max":250,"o":"m 234 10 q 226 2 234 10 q 195 -7 218 -7 q 155 10 172 -7 q 139 50 139 26 q 155 88 139 72 q 195 104 172 104 q 234 88 218 104 q 250 50 250 72 q 234 10 250 26 m 153 283 l 153 972 l 236 972 l 236 283 l 153 283 z "},"\"":{"ha":332,"x_min":83,"x_max":249,"o":"m 199 694 l 199 972 l 249 972 l 249 694 l 199 694 m 83 694 l 83 972 l 134 972 l 134 694 l 83 694 z "},"#":{"ha":998,"x_min":83,"x_max":909,"o":"m 629 -11 l 543 -11 l 602 262 l 304 262 l 248 -9 l 161 -9 l 218 262 l 83 262 l 83 346 l 236 346 l 290 600 l 83 600 l 83 684 l 307 684 l 368 972 l 454 972 l 393 684 l 689 684 l 750 971 l 836 971 l 775 684 l 909 684 l 909 600 l 758 600 l 704 346 l 909 346 l 909 262 l 688 262 l 629 -11 m 322 346 l 618 346 l 672 600 l 376 600 l 322 346 z "},"$":{"ha":920,"x_min":79,"x_max":770,"o":"m 79 201 q 212 118 136 152 q 361 72 287 84 l 361 468 q 282 497 315 484 q 212 533 248 511 q 153 579 176 555 q 114 638 130 604 q 97 715 98 673 q 117 831 95 780 q 178 912 139 882 q 263 961 218 943 q 361 986 309 979 l 361 1072 l 444 1072 l 444 990 q 591 959 517 987 q 717 897 664 932 l 717 794 q 587 870 660 838 q 444 907 515 902 l 444 530 q 538 499 507 511 q 621 463 570 488 q 698 413 672 438 q 746 347 724 388 q 768 257 767 307 q 756 160 770 203 q 721 89 743 117 q 666 41 699 62 q 604 9 633 20 q 540 -7 575 -1 q 485 -15 505 -14 q 444 -17 465 -16 l 444 -94 l 361 -94 l 361 -12 q 216 26 290 -2 q 79 96 142 54 l 79 201 m 180 718 q 229 623 182 660 q 361 557 275 587 l 361 903 q 227 847 276 892 q 180 718 178 803 m 444 66 q 479 68 463 67 q 523 74 496 69 q 570 85 549 78 q 614 107 591 93 q 652 140 637 121 q 677 189 667 159 q 685 254 686 218 q 670 311 684 285 q 636 354 656 336 q 581 389 616 372 q 518 417 546 406 q 444 441 490 427 l 444 66 z "},"%":{"ha":1018,"x_min":41,"x_max":977,"o":"m 245 608 q 342 646 305 608 q 379 743 379 684 q 342 839 379 802 q 245 876 305 876 q 148 839 185 876 q 111 743 111 802 q 148 646 111 684 q 245 608 185 608 m 41 743 q 101 887 41 827 q 245 946 160 946 q 389 886 330 946 q 449 743 449 827 q 389 599 449 659 q 245 539 330 539 q 101 599 160 539 q 41 743 41 659 m 123 0 l 808 972 l 895 972 l 210 0 l 123 0 m 570 239 q 629 382 570 323 q 774 441 689 441 q 917 382 858 441 q 977 239 977 322 q 917 94 977 154 q 774 35 858 35 q 629 94 688 35 q 570 239 570 154 m 639 239 q 676 142 639 179 q 774 104 713 104 q 870 142 833 104 q 907 239 907 179 q 870 335 907 298 q 774 372 833 372 q 676 335 713 372 q 639 239 639 298 z "},"&":{"ha":879,"x_min":82,"x_max":838,"o":"m 818 479 q 647 221 749 342 l 838 -1 l 729 -1 l 591 158 q 474 59 532 98 q 357 2 416 20 q 240 4 297 -16 q 136 82 183 24 q 95 155 108 119 q 82 222 82 191 q 97 286 83 253 q 131 345 112 319 q 180 402 149 372 q 239 454 212 432 q 304 505 267 477 q 228 635 252 579 q 204 742 204 690 q 218 824 204 786 q 257 886 233 861 q 313 927 281 910 q 379 948 344 944 q 448 949 414 952 q 514 929 483 946 q 570 889 545 913 q 608 827 594 865 q 623 745 623 789 q 607 674 623 709 q 562 605 592 639 q 501 544 532 571 q 427 484 471 517 q 595 283 464 436 q 724 479 663 370 l 818 479 m 203 135 q 274 84 233 96 q 358 89 314 73 q 447 137 402 104 q 539 220 492 170 q 359 433 381 406 q 304 392 326 409 q 256 351 283 375 q 215 309 230 328 q 188 268 201 291 q 173 225 174 245 q 178 181 171 205 q 203 135 184 158 m 288 742 q 308 660 288 703 q 372 555 328 616 q 497 660 454 616 q 539 745 539 703 q 525 811 539 782 q 489 854 511 840 q 440 876 467 869 q 387 875 414 882 q 337 852 359 867 q 301 808 315 837 q 288 742 288 779 z "},"'":{"ha":216,"x_min":83,"x_max":134,"o":"m 83 694 l 83 972 l 134 972 l 134 694 l 83 694 z "},"(":{"ha":420,"x_min":83,"x_max":338,"o":"m 271 -46 q 138 199 193 58 q 83 486 83 341 q 138 772 83 631 q 271 1018 193 913 l 338 968 q 216 744 265 871 q 167 486 167 617 q 216 228 167 355 q 338 4 265 101 l 271 -46 z "},")":{"ha":420,"x_min":83,"x_max":338,"o":"m 83 4 q 205 228 156 101 q 254 486 254 355 q 205 744 254 617 q 83 968 156 871 l 150 1018 q 283 772 228 913 q 338 486 338 631 q 283 200 338 341 q 150 -46 228 58 l 83 4 z "},"*":{"ha":668,"x_min":83,"x_max":585,"o":"m 314 746 l 298 974 l 379 974 l 354 746 l 543 875 l 585 803 l 376 710 l 583 610 l 545 542 l 357 672 l 371 443 l 297 443 l 314 671 l 125 542 l 83 612 l 292 707 l 87 811 l 121 871 l 314 746 z "},"+":{"ha":861,"x_min":139,"x_max":722,"o":"m 722 498 l 722 415 l 472 415 l 472 165 l 389 165 l 389 415 l 139 415 l 139 498 l 389 498 l 389 749 l 472 749 l 472 498 l 722 498 z "},",":{"ha":264,"x_min":41,"x_max":180,"o":"m 41 -86 q 73 -44 61 -66 q 90 3 85 -23 q 96 47 95 29 q 97 98 97 64 l 180 98 q 179 41 180 62 q 171 -16 178 20 q 148 -84 165 -52 q 103 -144 131 -115 l 41 -86 z "},"-":{"ha":500,"x_min":83,"x_max":416,"o":"m 83 521 l 416 521 l 416 437 l 83 437 l 83 521 z "},".":{"ha":277,"x_min":83,"x_max":195,"o":"m 178 10 q 170 2 178 10 q 139 -7 162 -7 q 100 10 116 -7 q 83 50 83 26 q 100 88 83 72 q 139 104 116 104 q 178 88 162 104 q 195 50 195 72 q 178 10 195 26 z "},"/":{"ha":369,"x_min":0,"x_max":370,"o":"m 86 -14 l 0 -14 l 283 982 l 370 982 l 86 -14 z "},":":{"ha":277,"x_min":83,"x_max":195,"o":"m 178 10 q 170 2 178 10 q 139 -7 162 -7 q 100 10 116 -7 q 83 50 83 26 q 100 88 83 72 q 139 104 116 104 q 178 88 162 104 q 195 50 195 72 q 178 10 195 26 m 83 566 q 100 603 83 587 q 139 619 116 619 q 178 603 162 619 q 195 566 195 587 q 178 525 195 542 q 139 509 162 509 q 100 525 116 509 q 83 566 83 542 z "},";":{"ha":264,"x_min":41,"x_max":195,"o":"m 41 -86 q 73 -44 61 -66 q 90 3 85 -23 q 96 47 95 29 q 97 98 97 64 l 180 98 q 179 41 180 62 q 171 -16 178 20 q 148 -84 165 -52 q 103 -144 131 -115 l 41 -86 m 83 562 q 100 600 83 584 q 139 616 116 616 q 178 600 162 616 q 195 562 195 584 q 178 522 195 538 q 139 505 162 505 q 100 522 116 505 q 83 562 83 538 z "},"<":{"ha":825,"x_min":83,"x_max":742,"o":"m 742 170 l 83 446 l 83 550 l 742 827 l 742 734 l 175 498 l 742 261 l 742 170 z "},"=":{"ha":972,"x_min":139,"x_max":724,"o":"m 724 574 l 724 490 l 140 490 l 140 574 l 724 574 m 139 309 l 139 392 l 722 392 l 722 309 l 139 309 z "},">":{"ha":825,"x_min":83,"x_max":742,"o":"m 83 170 l 83 261 l 650 498 l 83 734 l 83 827 l 742 550 l 742 446 l 83 170 z "},"?":{"ha":615,"x_min":83,"x_max":536,"o":"m 317 10 q 309 2 317 10 q 278 -7 301 -7 q 239 10 255 -7 q 222 50 222 26 q 239 88 222 72 q 278 104 255 104 q 317 88 301 104 q 334 50 334 72 q 317 10 334 26 m 83 772 l 83 875 q 288 939 178 939 q 399 917 349 939 q 478 862 448 896 q 522 783 508 827 q 531 692 536 738 q 501 601 526 646 q 433 521 476 555 q 375 468 398 493 q 340 423 352 442 q 322 374 328 404 q 315 327 316 345 q 314 267 314 308 q 314 257 314 260 l 231 257 q 231 270 231 261 q 231 315 231 300 q 234 357 231 330 q 242 401 237 384 q 258 444 248 418 q 285 490 269 469 q 325 537 300 511 q 380 587 349 562 q 444 671 427 624 q 450 759 461 719 q 395 828 438 800 q 288 856 353 856 q 182 833 231 856 q 83 772 134 810 z "},"@":{"ha":1430,"x_min":83,"x_max":1354,"o":"m 610 74 q 798 125 741 74 q 880 314 855 176 q 895 485 898 412 q 854 604 892 558 q 746 659 817 650 q 543 611 617 675 q 436 396 469 547 q 431 305 431 351 q 443 218 431 260 q 476 144 456 176 q 531 93 496 112 q 610 74 566 74 m 83 281 q 134 575 83 441 q 274 800 185 709 q 486 939 363 890 q 751 989 609 989 q 889 979 822 989 q 1023 947 957 968 q 1143 892 1088 926 q 1242 813 1198 859 q 1313 706 1287 766 q 1346 571 1339 646 q 1333 406 1354 496 q 1164 83 1290 192 q 986 7 1078 8 q 871 54 909 5 q 859 74 864 64 q 610 -9 771 -9 q 510 9 555 -9 q 436 58 465 27 q 385 131 406 90 q 356 219 363 173 q 346 315 348 266 q 354 411 345 365 q 495 673 391 585 q 755 742 600 762 q 950 593 899 725 l 982 726 l 1068 726 l 932 157 q 956 84 920 106 q 1050 88 993 61 q 1187 234 1130 125 q 1253 422 1230 314 q 1262 582 1269 511 q 1221 706 1255 652 q 1141 797 1188 760 q 1029 859 1093 835 q 896 894 965 883 q 751 905 827 905 q 515 863 623 905 q 330 742 408 821 q 210 545 253 663 q 167 281 167 427 q 174 204 167 243 q 197 118 180 164 q 240 30 214 72 q 308 -52 266 -12 q 402 -121 349 -92 q 529 -167 455 -150 q 690 -184 604 -184 q 980 -142 844 -184 q 1173 -46 1116 -100 l 1272 -46 q 1206 -125 1259 -85 q 1074 -196 1152 -165 q 894 -248 996 -228 q 690 -268 792 -268 q 505 -247 591 -268 q 358 -190 419 -225 q 249 -108 298 -155 q 170 -10 200 -60 q 119 94 140 40 q 91 194 99 149 q 83 281 83 240 z "},"A":{"ha":883,"x_min":28,"x_max":854,"o":"m 854 0 l 774 0 l 633 389 l 253 389 l 110 0 l 28 0 l 387 972 l 505 972 l 854 0 m 282 465 l 607 465 l 452 896 l 440 896 l 282 465 z "},"B":{"ha":808,"x_min":111,"x_max":766,"o":"m 111 972 l 395 972 q 613 910 532 972 q 693 741 693 848 q 664 630 693 679 q 582 551 635 582 q 718 451 669 519 q 766 288 766 382 q 670 78 766 155 q 410 0 574 0 l 111 0 l 111 972 m 195 69 l 410 69 q 611 128 538 69 q 684 288 684 186 q 618 454 684 399 q 418 509 552 509 l 195 509 l 195 69 m 195 578 l 428 578 q 558 622 507 578 q 610 741 610 665 q 553 860 610 816 q 395 904 496 904 l 195 904 l 195 578 z "},"C":{"ha":926,"x_min":65,"x_max":843,"o":"m 843 111 q 493 -17 688 -17 q 336 12 408 -17 q 215 90 264 41 q 131 204 165 139 q 81 341 97 270 q 65 488 65 413 q 83 634 65 563 q 139 770 100 705 q 233 884 178 836 q 368 961 288 932 q 545 990 449 990 q 717 963 638 990 q 843 886 795 936 l 843 789 q 707 878 778 848 q 545 907 637 907 q 365 872 443 907 q 241 777 287 837 q 172 644 195 718 q 149 488 149 571 q 161 360 149 420 q 201 245 174 299 q 268 152 228 191 q 365 90 307 113 q 493 66 423 66 q 558 71 526 66 q 615 82 590 75 q 666 100 640 88 q 709 120 692 111 q 748 145 726 130 q 782 171 770 161 q 814 196 793 180 q 843 220 835 213 l 843 111 z "},"D":{"ha":943,"x_min":111,"x_max":901,"o":"m 111 0 l 111 972 l 478 972 q 644 938 567 972 q 779 841 722 903 q 868 687 836 779 q 901 484 901 594 q 844 228 901 338 q 688 58 786 117 q 467 0 589 0 l 111 0 m 195 83 l 467 83 q 723 187 629 83 q 818 484 818 291 q 726 784 818 679 q 478 889 634 889 l 195 889 l 195 83 z "},"E":{"ha":886,"x_min":111,"x_max":831,"o":"m 111 0 l 111 972 l 808 972 l 808 896 l 195 896 l 195 562 l 684 562 l 684 486 l 195 486 l 195 77 l 831 77 l 831 0 l 111 0 z "},"F":{"ha":863,"x_min":111,"x_max":808,"o":"m 111 972 l 808 972 l 808 896 l 195 896 l 195 562 l 684 562 l 684 486 l 195 486 l 195 0 l 111 0 l 111 972 z "},"G":{"ha":1010,"x_min":83,"x_max":932,"o":"m 568 380 l 568 464 l 926 464 q 921 336 932 401 q 878 206 909 270 q 800 92 847 142 q 681 11 753 42 q 521 -20 608 -20 q 361 9 434 -20 q 237 88 288 39 q 151 202 186 137 q 100 339 116 268 q 83 485 83 410 q 101 633 83 560 q 156 771 119 706 q 245 885 193 836 q 372 963 298 934 q 532 991 446 991 q 718 959 642 991 q 828 890 793 926 l 828 791 q 704 876 781 844 q 532 908 627 908 q 372 873 443 908 q 257 778 300 838 q 190 643 213 718 q 167 485 167 568 q 180 358 167 418 q 221 243 193 297 q 290 150 249 189 q 390 87 331 110 q 521 64 450 64 q 633 81 582 64 q 721 129 684 99 q 783 200 757 159 q 824 286 810 241 q 843 380 838 331 l 568 380 z "},"H":{"ha":1017,"x_min":111,"x_max":905,"o":"m 111 972 l 195 972 l 195 559 l 822 559 l 822 972 l 905 972 l 905 0 l 822 0 l 822 484 l 195 484 l 195 0 l 111 0 l 111 972 z "},"I":{"ha":305,"x_min":111,"x_max":195,"o":"m 111 972 l 195 972 l 195 0 l 111 0 l 111 972 z "},"J":{"ha":524,"x_min":21,"x_max":364,"o":"m 32 -35 q 177 -37 122 -49 q 257 20 233 -26 q 281 161 281 66 l 281 972 l 364 972 l 364 161 q 340 9 364 70 q 272 -82 317 -52 q 164 -121 228 -112 q 21 -118 100 -130 l 32 -35 z "},"K":{"ha":846,"x_min":111,"x_max":864,"o":"m 111 972 l 195 972 l 195 397 l 708 972 l 819 972 l 437 545 l 864 0 l 758 0 l 379 481 l 195 273 l 195 0 l 111 0 l 111 972 z "},"L":{"ha":790,"x_min":111,"x_max":734,"o":"m 111 972 l 195 972 l 195 77 l 734 77 l 734 0 l 111 0 l 111 972 z "},"M":{"ha":1185,"x_min":111,"x_max":1075,"o":"m 111 972 l 208 972 l 603 191 l 982 972 l 1075 972 l 1075 0 l 999 0 l 999 829 l 648 107 l 550 107 l 187 827 l 187 0 l 111 0 l 111 972 z "},"N":{"ha":1038,"x_min":111,"x_max":928,"o":"m 111 972 l 212 972 l 851 93 l 851 972 l 928 972 l 928 0 l 825 0 l 187 876 l 187 0 l 111 0 l 111 972 z "},"O":{"ha":1036,"x_min":83,"x_max":953,"o":"m 519 62 q 709 118 629 62 q 829 269 789 174 q 869 486 869 364 q 846 653 869 576 q 779 787 823 730 q 669 876 736 844 q 519 908 602 908 q 368 876 435 908 q 257 787 300 844 q 190 653 213 730 q 167 486 167 576 q 207 269 167 364 q 327 118 246 174 q 519 62 408 62 m 83 486 q 112 683 83 591 q 193 843 140 774 q 331 952 247 912 q 519 991 414 991 q 706 952 623 991 q 843 843 789 912 q 925 683 897 774 q 953 486 953 591 q 925 288 953 380 q 843 127 897 197 q 706 19 789 58 q 519 -21 623 -21 q 331 19 414 -21 q 193 127 247 58 q 112 288 140 197 q 83 486 83 380 z "},"P":{"ha":886,"x_min":111,"x_max":803,"o":"m 111 972 l 406 972 q 695 886 588 972 q 803 653 803 800 q 693 422 803 507 q 395 338 583 338 l 195 338 l 195 0 l 111 0 l 111 972 m 195 414 l 395 414 q 636 477 553 414 q 720 653 720 541 q 639 831 720 766 q 406 896 558 896 l 195 896 l 195 414 z "},"Q":{"ha":1036,"x_min":83,"x_max":953,"o":"m 519 62 q 782 175 694 62 q 869 486 869 288 q 781 795 869 682 q 519 908 693 908 q 255 795 343 908 q 167 486 167 683 q 204 262 167 356 q 321 116 241 169 q 519 62 401 62 m 83 486 q 112 683 83 591 q 193 843 140 774 q 331 952 247 912 q 519 991 414 991 q 706 952 623 991 q 843 843 789 912 q 925 683 897 774 q 953 486 953 591 q 919 271 953 370 q 821 103 886 172 l 928 -3 l 869 -62 l 757 47 q 519 -21 654 -21 q 331 19 414 -21 q 193 127 247 58 q 112 288 140 197 q 83 486 83 380 z "},"R":{"ha":920,"x_min":111,"x_max":895,"o":"m 111 972 l 385 972 q 654 892 554 972 q 754 675 754 811 q 707 517 754 584 q 572 415 659 450 q 651 362 616 395 q 712 287 686 329 q 762 200 739 244 q 821 100 786 156 q 895 0 856 45 l 787 0 q 714 109 750 50 q 659 205 679 168 q 612 279 640 241 q 556 336 585 316 q 481 369 527 356 q 371 382 435 382 l 195 382 l 195 0 l 111 0 l 111 972 m 195 461 l 375 461 q 596 517 522 461 q 671 675 671 572 q 598 836 671 778 q 385 893 525 893 l 195 893 l 195 461 z "},"S":{"ha":854,"x_min":79,"x_max":770,"o":"m 79 201 q 251 101 151 138 q 435 66 351 64 q 597 97 541 69 q 685 254 689 143 q 651 339 684 303 q 567 397 618 375 q 454 438 515 419 q 330 479 392 457 q 217 529 268 501 q 132 605 165 557 q 97 715 99 652 q 114 822 95 774 q 163 900 132 869 q 237 950 194 930 q 322 980 279 971 q 411 990 366 989 q 574 964 491 993 q 717 897 656 936 l 717 794 q 571 876 652 843 q 414 907 490 909 q 323 895 363 905 q 249 864 283 885 q 197 807 215 844 q 180 718 179 770 q 202 652 182 681 q 256 604 222 623 q 334 567 290 584 q 425 536 377 551 q 522 506 473 522 q 613 468 570 490 q 691 419 657 446 q 746 350 725 391 q 768 257 767 309 q 761 177 770 214 q 738 114 752 140 q 699 67 723 88 q 653 32 675 45 q 602 9 632 19 q 551 -5 571 -1 q 503 -13 531 -10 q 465 -16 475 -16 q 437 -17 454 -16 q 258 12 355 -19 q 79 96 160 42 l 79 201 z "},"T":{"ha":844,"x_min":35,"x_max":810,"o":"m 810 972 l 810 889 l 464 889 l 464 0 l 380 0 l 380 889 l 35 889 l 35 972 l 810 972 z "},"U":{"ha":1053,"x_min":111,"x_max":942,"o":"m 859 972 l 942 972 l 942 408 q 528 -16 942 -16 q 111 408 111 -16 l 111 972 l 195 972 l 195 408 q 274 146 195 225 q 528 68 353 68 q 780 146 701 68 q 859 408 859 224 l 859 972 z "},"V":{"ha":884,"x_min":14,"x_max":871,"o":"m 789 971 l 871 971 l 485 0 l 379 0 l 14 972 l 96 972 l 431 83 l 435 83 l 789 971 z "},"W":{"ha":1267,"x_min":14,"x_max":1254,"o":"m 272 0 l 14 971 l 96 971 l 332 87 l 589 971 l 665 971 l 932 86 l 1173 971 l 1254 971 l 990 0 l 878 0 l 628 832 l 385 0 l 272 0 z "},"X":{"ha":846,"x_min":28,"x_max":828,"o":"m 828 0 l 729 0 l 419 429 l 125 0 l 31 0 l 370 497 l 28 971 l 126 971 l 424 559 l 707 972 l 803 972 l 473 490 l 828 0 z "},"Y":{"ha":802,"x_min":14,"x_max":789,"o":"m 439 0 l 355 0 l 355 338 l 14 971 l 109 971 l 401 429 l 703 972 l 789 972 l 439 340 l 439 0 z "},"Z":{"ha":966,"x_min":111,"x_max":856,"o":"m 848 972 l 848 896 l 210 77 l 856 77 l 856 0 l 111 0 l 111 77 l 113 77 l 751 896 l 132 896 l 132 972 l 848 972 z "},"[":{"ha":362,"x_min":83,"x_max":279,"o":"m 279 -18 l 279 -102 l 83 -102 l 83 1072 l 279 1072 l 279 989 l 167 989 l 167 -18 l 279 -18 z "},"\\":{"ha":369,"x_min":0,"x_max":370,"o":"m 283 -14 l 0 982 l 86 982 l 370 -14 l 283 -14 z "},"]":{"ha":362,"x_min":83,"x_max":279,"o":"m 83 -18 l 196 -18 l 196 989 l 83 989 l 83 1072 l 279 1072 l 279 -102 l 83 -102 l 83 -18 z "},"_":{"ha":833,"x_min":83,"x_max":750,"o":"m 83 110 l 750 110 l 750 26 l 83 26 l 83 110 z "},"a":{"ha":883,"x_min":28,"x_max":854,"o":"m 854 0 l 774 0 l 633 389 l 253 389 l 110 0 l 28 0 l 387 972 l 505 972 l 854 0 m 282 465 l 607 465 l 452 896 l 440 896 l 282 465 z "},"b":{"ha":808,"x_min":111,"x_max":766,"o":"m 111 972 l 395 972 q 613 910 532 972 q 693 741 693 848 q 664 630 693 679 q 582 551 635 582 q 718 451 669 519 q 766 288 766 382 q 670 78 766 155 q 410 0 574 0 l 111 0 l 111 972 m 195 69 l 410 69 q 611 128 538 69 q 684 288 684 186 q 618 454 684 399 q 418 509 552 509 l 195 509 l 195 69 m 195 578 l 428 578 q 558 622 507 578 q 610 741 610 665 q 553 860 610 816 q 395 904 496 904 l 195 904 l 195 578 z "},"c":{"ha":926,"x_min":65,"x_max":843,"o":"m 843 111 q 493 -17 688 -17 q 336 12 408 -17 q 215 90 264 41 q 131 204 165 139 q 81 341 97 270 q 65 488 65 413 q 83 634 65 563 q 139 770 100 705 q 233 884 178 836 q 368 961 288 932 q 545 990 449 990 q 717 963 638 990 q 843 886 795 936 l 843 789 q 707 878 778 848 q 545 907 637 907 q 365 872 443 907 q 241 777 287 837 q 172 644 195 718 q 149 488 149 571 q 161 360 149 420 q 201 245 174 299 q 268 152 228 191 q 365 90 307 113 q 493 66 423 66 q 558 71 526 66 q 615 82 590 75 q 666 100 640 88 q 709 120 692 111 q 748 145 726 130 q 782 171 770 161 q 814 196 793 180 q 843 220 835 213 l 843 111 z "},"d":{"ha":943,"x_min":111,"x_max":901,"o":"m 111 0 l 111 972 l 478 972 q 644 938 567 972 q 779 841 722 903 q 868 687 836 779 q 901 484 901 594 q 844 228 901 338 q 688 58 786 117 q 467 0 589 0 l 111 0 m 195 83 l 467 83 q 723 187 629 83 q 818 484 818 291 q 726 784 818 679 q 478 889 634 889 l 195 889 l 195 83 z "},"e":{"ha":886,"x_min":111,"x_max":831,"o":"m 111 0 l 111 972 l 808 972 l 808 896 l 195 896 l 195 562 l 684 562 l 684 486 l 195 486 l 195 77 l 831 77 l 831 0 l 111 0 z "},"f":{"ha":863,"x_min":111,"x_max":808,"o":"m 111 972 l 808 972 l 808 896 l 195 896 l 195 562 l 684 562 l 684 486 l 195 486 l 195 0 l 111 0 l 111 972 z "},"g":{"ha":1010,"x_min":83,"x_max":932,"o":"m 568 380 l 568 464 l 926 464 q 921 336 932 401 q 878 206 909 270 q 800 92 847 142 q 681 11 753 42 q 521 -20 608 -20 q 361 9 434 -20 q 237 88 288 39 q 151 202 186 137 q 100 339 116 268 q 83 485 83 410 q 101 633 83 560 q 156 771 119 706 q 245 885 193 836 q 372 963 298 934 q 532 991 446 991 q 718 959 642 991 q 828 890 793 926 l 828 791 q 704 876 781 844 q 532 908 627 908 q 372 873 443 908 q 257 778 300 838 q 190 643 213 718 q 167 485 167 568 q 180 358 167 418 q 221 243 193 297 q 290 150 249 189 q 390 87 331 110 q 521 64 450 64 q 633 81 582 64 q 721 129 684 99 q 783 200 757 159 q 824 286 810 241 q 843 380 838 331 l 568 380 z "},"h":{"ha":1017,"x_min":111,"x_max":905,"o":"m 111 972 l 195 972 l 195 559 l 822 559 l 822 972 l 905 972 l 905 0 l 822 0 l 822 484 l 195 484 l 195 0 l 111 0 l 111 972 z "},"i":{"ha":305,"x_min":111,"x_max":195,"o":"m 111 972 l 195 972 l 195 0 l 111 0 l 111 972 z "},"j":{"ha":524,"x_min":21,"x_max":364,"o":"m 32 -35 q 177 -37 122 -49 q 257 20 233 -26 q 281 161 281 66 l 281 972 l 364 972 l 364 161 q 340 9 364 70 q 272 -82 317 -52 q 164 -121 228 -112 q 21 -118 100 -130 l 32 -35 z "},"k":{"ha":846,"x_min":111,"x_max":864,"o":"m 111 972 l 195 972 l 195 397 l 708 972 l 819 972 l 437 545 l 864 0 l 758 0 l 379 481 l 195 273 l 195 0 l 111 0 l 111 972 z "},"l":{"ha":790,"x_min":111,"x_max":734,"o":"m 111 972 l 195 972 l 195 77 l 734 77 l 734 0 l 111 0 l 111 972 z "},"m":{"ha":1185,"x_min":111,"x_max":1075,"o":"m 111 972 l 208 972 l 603 191 l 982 972 l 1075 972 l 1075 0 l 999 0 l 999 829 l 648 107 l 550 107 l 187 827 l 187 0 l 111 0 l 111 972 z "},"n":{"ha":1038,"x_min":111,"x_max":928,"o":"m 111 972 l 212 972 l 851 93 l 851 972 l 928 972 l 928 0 l 825 0 l 187 876 l 187 0 l 111 0 l 111 972 z "},"o":{"ha":1036,"x_min":83,"x_max":953,"o":"m 519 62 q 709 118 629 62 q 829 269 789 174 q 869 486 869 364 q 846 653 869 576 q 779 787 823 730 q 669 876 736 844 q 519 908 602 908 q 368 876 435 908 q 257 787 300 844 q 190 653 213 730 q 167 486 167 576 q 207 269 167 364 q 327 118 246 174 q 519 62 408 62 m 83 486 q 112 683 83 591 q 193 843 140 774 q 331 952 247 912 q 519 991 414 991 q 706 952 623 991 q 843 843 789 912 q 925 683 897 774 q 953 486 953 591 q 925 288 953 380 q 843 127 897 197 q 706 19 789 58 q 519 -21 623 -21 q 331 19 414 -21 q 193 127 247 58 q 112 288 140 197 q 83 486 83 380 z "},"p":{"ha":886,"x_min":111,"x_max":803,"o":"m 111 972 l 406 972 q 695 886 588 972 q 803 653 803 800 q 693 422 803 507 q 395 338 583 338 l 195 338 l 195 0 l 111 0 l 111 972 m 195 414 l 395 414 q 636 477 553 414 q 720 653 720 541 q 639 831 720 766 q 406 896 558 896 l 195 896 l 195 414 z "},"q":{"ha":1036,"x_min":83,"x_max":953,"o":"m 519 62 q 782 175 694 62 q 869 486 869 288 q 781 795 869 682 q 519 908 693 908 q 255 795 343 908 q 167 486 167 683 q 204 262 167 356 q 321 116 241 169 q 519 62 401 62 m 83 486 q 112 683 83 591 q 193 843 140 774 q 331 952 247 912 q 519 991 414 991 q 706 952 623 991 q 843 843 789 912 q 925 683 897 774 q 953 486 953 591 q 919 271 953 370 q 821 103 886 172 l 928 -3 l 869 -62 l 757 47 q 519 -21 654 -21 q 331 19 414 -21 q 193 127 247 58 q 112 288 140 197 q 83 486 83 380 z "},"r":{"ha":920,"x_min":111,"x_max":895,"o":"m 111 972 l 385 972 q 654 892 554 972 q 754 675 754 811 q 707 517 754 584 q 572 415 659 450 q 651 362 616 395 q 712 287 686 329 q 762 200 739 244 q 821 100 786 156 q 895 0 856 45 l 787 0 q 714 109 750 50 q 659 205 679 168 q 612 279 640 241 q 556 336 585 316 q 481 369 527 356 q 371 382 435 382 l 195 382 l 195 0 l 111 0 l 111 972 m 195 461 l 375 461 q 596 517 522 461 q 671 675 671 572 q 598 836 671 778 q 385 893 525 893 l 195 893 l 195 461 z "},"s":{"ha":854,"x_min":79,"x_max":770,"o":"m 79 201 q 251 101 151 138 q 435 66 351 64 q 597 97 541 69 q 685 254 689 143 q 651 339 684 303 q 567 397 618 375 q 454 438 515 419 q 330 479 392 457 q 217 529 268 501 q 132 605 165 557 q 97 715 99 652 q 114 822 95 774 q 163 900 132 869 q 237 950 194 930 q 322 980 279 971 q 411 990 366 989 q 574 964 491 993 q 717 897 656 936 l 717 794 q 571 876 652 843 q 414 907 490 909 q 323 895 363 905 q 249 864 283 885 q 197 807 215 844 q 180 718 179 770 q 202 652 182 681 q 256 604 222 623 q 334 567 290 584 q 425 536 377 551 q 522 506 473 522 q 613 468 570 490 q 691 419 657 446 q 746 350 725 391 q 768 257 767 309 q 761 177 770 214 q 738 114 752 140 q 699 67 723 88 q 653 32 675 45 q 602 9 632 19 q 551 -5 571 -1 q 503 -13 531 -10 q 465 -16 475 -16 q 437 -17 454 -16 q 258 12 355 -19 q 79 96 160 42 l 79 201 z "},"t":{"ha":844,"x_min":35,"x_max":810,"o":"m 810 972 l 810 889 l 464 889 l 464 0 l 380 0 l 380 889 l 35 889 l 35 972 l 810 972 z "},"u":{"ha":1053,"x_min":111,"x_max":942,"o":"m 859 972 l 942 972 l 942 408 q 528 -16 942 -16 q 111 408 111 -16 l 111 972 l 195 972 l 195 408 q 274 146 195 225 q 528 68 353 68 q 780 146 701 68 q 859 408 859 224 l 859 972 z "},"v":{"ha":884,"x_min":14,"x_max":871,"o":"m 789 971 l 871 971 l 485 0 l 379 0 l 14 972 l 96 972 l 431 83 l 435 83 l 789 971 z "},"w":{"ha":1267,"x_min":14,"x_max":1254,"o":"m 272 0 l 14 971 l 96 971 l 332 87 l 589 971 l 665 971 l 932 86 l 1173 971 l 1254 971 l 990 0 l 878 0 l 628 832 l 385 0 l 272 0 z "},"x":{"ha":846,"x_min":28,"x_max":828,"o":"m 828 0 l 729 0 l 419 429 l 125 0 l 31 0 l 370 497 l 28 971 l 126 971 l 424 559 l 707 972 l 803 972 l 473 490 l 828 0 z "},"y":{"ha":802,"x_min":14,"x_max":789,"o":"m 439 0 l 355 0 l 355 338 l 14 971 l 109 971 l 401 429 l 703 972 l 789 972 l 439 340 l 439 0 z "},"z":{"ha":966,"x_min":111,"x_max":856,"o":"m 848 972 l 848 896 l 210 77 l 856 77 l 856 0 l 111 0 l 111 77 l 113 77 l 751 896 l 132 896 l 132 972 l 848 972 z "},"{":{"ha":484,"x_min":83,"x_max":401,"o":"m 401 -107 q 323 -99 357 -107 q 267 -81 289 -92 q 229 -48 244 -71 q 206 -7 214 -25 q 194 47 198 10 q 190 106 191 83 q 189 176 189 129 q 189 256 189 226 q 187 318 189 286 q 182 367 185 350 q 174 401 179 384 q 161 426 168 418 q 142 440 154 434 q 117 449 130 447 q 83 450 103 450 l 83 542 q 117 544 103 542 q 143 552 132 546 q 161 566 154 559 q 174 588 169 572 q 182 616 180 603 q 187 655 185 630 q 189 703 189 681 q 189 762 189 725 q 190 832 189 810 q 194 893 191 855 q 206 949 198 930 q 229 991 214 967 q 267 1026 244 1015 q 323 1046 289 1038 q 401 1054 357 1054 l 401 971 q 367 970 382 971 q 338 965 351 969 q 316 958 326 961 q 300 946 307 955 q 288 930 293 937 q 280 908 283 924 q 276 882 277 892 q 273 848 274 871 q 272 809 272 825 q 272 762 272 794 q 272 720 272 734 q 271 678 271 705 q 267 635 270 651 q 261 596 264 619 q 250 560 257 574 q 234 531 243 546 q 212 507 225 516 q 183 493 199 498 q 207 483 196 490 q 227 465 218 476 q 241 444 235 454 q 253 415 248 433 q 261 384 258 397 q 267 348 264 371 q 270 309 269 324 q 271 267 271 294 q 272 223 272 239 q 272 176 272 208 q 273 111 272 132 q 275 63 273 91 q 282 26 277 36 q 296 2 288 16 q 319 -14 304 -11 q 354 -21 334 -18 q 401 -24 373 -24 l 401 -107 z "},"|":{"ha":416,"x_min":167,"x_max":250,"o":"m 167 972 l 250 972 l 250 -278 l 167 -278 l 167 972 z "},"}":{"ha":484,"x_min":83,"x_max":401,"o":"m 83 -24 q 122 -22 106 -24 q 152 -19 138 -20 q 174 -9 165 -17 q 190 3 183 -1 q 201 24 197 8 q 208 49 205 39 q 211 83 210 58 q 212 124 212 109 q 212 176 212 140 q 212 223 212 208 q 213 267 212 239 q 215 309 214 294 q 218 348 216 324 q 223 384 220 371 q 231 415 227 397 q 243 444 236 433 q 258 465 250 454 q 277 483 266 476 q 301 493 288 490 q 272 507 285 498 q 250 531 259 516 q 234 560 241 546 q 223 596 227 574 q 217 635 220 619 q 214 678 214 651 q 213 720 213 705 q 212 762 212 734 q 212 837 212 814 q 207 890 211 859 q 196 931 203 921 q 174 954 189 941 q 138 968 159 966 q 83 971 117 971 l 83 1054 q 162 1046 128 1054 q 218 1026 196 1038 q 256 991 241 1015 q 279 949 271 967 q 291 893 287 930 q 295 832 294 855 q 296 762 296 810 q 296 703 296 725 q 298 655 296 681 q 302 616 300 630 q 311 588 305 603 q 323 566 316 572 q 342 552 331 559 q 368 544 353 546 q 401 542 382 542 l 401 450 q 368 449 382 450 q 343 440 355 447 q 324 426 331 434 q 311 401 317 418 q 303 367 306 384 q 298 318 300 350 q 296 256 296 286 q 296 176 296 226 q 295 106 296 129 q 291 47 294 83 q 279 -7 287 10 q 256 -48 271 -25 q 218 -81 241 -71 q 162 -99 196 -92 q 83 -107 128 -107 l 83 -24 z "},"¡":{"ha":389,"x_min":139,"x_max":250,"o":"m 155 685 q 163 693 155 685 q 195 701 172 701 q 234 685 218 701 q 250 644 250 668 q 234 606 250 623 q 195 590 218 590 q 155 606 172 590 q 139 644 139 623 q 155 685 139 668 m 153 -278 l 153 411 l 236 411 l 236 -278 l 153 -278 z "},"¢":{"ha":688,"x_min":83,"x_max":606,"o":"m 606 64 q 376 -17 503 -17 q 317 -11 346 -17 l 267 -171 l 186 -146 l 237 18 q 123 145 162 61 q 83 326 83 230 q 103 451 83 391 q 158 561 122 511 q 251 640 194 610 q 376 669 307 669 q 443 665 414 669 l 498 839 l 579 814 l 526 646 q 606 607 570 632 l 606 503 q 501 568 545 551 l 343 69 q 376 66 362 66 q 441 73 411 66 q 496 93 471 79 q 536 116 521 106 q 574 145 551 126 q 606 170 597 163 l 606 64 m 167 326 q 191 191 167 251 q 264 98 215 131 l 418 585 q 376 586 406 586 q 285 565 326 586 q 219 508 244 544 q 180 425 193 471 q 167 326 167 378 z "},"£":{"ha":790,"x_min":53,"x_max":707,"o":"m 707 0 l 90 0 q 126 139 113 58 q 144 268 140 220 q 155 422 149 317 l 53 422 l 53 505 l 161 505 q 172 616 166 569 q 191 718 178 663 q 221 810 203 772 q 268 885 240 848 q 336 945 296 923 q 428 980 376 966 q 549 991 479 994 q 704 972 619 989 l 688 890 q 542 907 606 907 q 433 896 477 907 q 355 855 388 884 q 304 795 323 826 q 272 712 285 764 q 255 616 260 661 q 245 505 250 572 l 518 505 l 518 422 l 241 422 q 203 83 233 209 l 707 83 l 707 0 z "},"¤":{"ha":833,"x_min":83,"x_max":750,"o":"m 415 228 q 581 293 515 228 q 646 460 646 359 q 581 625 646 560 q 415 690 515 690 q 249 625 314 690 q 183 460 183 560 q 249 293 183 359 q 415 228 314 228 m 83 183 l 165 267 q 100 460 100 356 q 165 652 100 562 l 83 733 l 142 791 l 225 710 q 415 774 309 774 q 607 708 520 774 l 692 791 l 750 733 l 665 648 q 729 460 729 564 q 665 269 729 353 l 750 183 l 692 125 l 607 210 q 415 144 521 144 q 225 208 309 144 l 142 125 l 83 183 z "},"¥":{"ha":802,"x_min":14,"x_max":789,"o":"m 439 0 l 355 0 l 355 163 l 36 163 l 36 245 l 355 245 l 355 338 l 353 342 l 36 342 l 36 425 l 309 425 l 14 971 l 109 971 l 401 429 l 703 972 l 789 972 l 486 425 l 766 425 l 766 342 l 440 342 l 439 340 l 439 245 l 766 245 l 766 163 l 439 163 l 439 0 z "},"¦":{"ha":416,"x_min":167,"x_max":250,"o":"m 167 972 l 250 972 l 250 486 l 167 486 l 167 972 m 167 -278 l 167 250 l 250 250 l 250 -278 l 167 -278 z "},"§":{"ha":654,"x_min":83,"x_max":571,"o":"m 96 175 q 193 102 135 127 q 307 78 252 78 q 334 78 326 78 q 365 80 342 78 q 400 86 387 82 q 432 98 414 90 q 461 118 451 106 q 480 149 472 130 q 488 192 488 168 q 465 238 488 218 q 407 271 443 258 q 329 297 372 284 q 242 326 286 310 q 164 364 199 342 q 106 421 128 385 q 83 503 83 456 q 108 595 83 555 q 178 657 132 635 q 93 794 93 708 q 107 866 93 834 q 144 919 121 899 q 196 952 167 939 q 254 971 226 966 q 311 977 283 977 q 519 899 420 977 l 519 789 q 481 822 494 811 q 446 849 469 833 q 405 873 422 866 q 362 887 387 881 q 311 893 338 893 q 176 794 176 893 q 197 750 176 769 q 252 719 218 732 q 326 695 286 707 q 407 667 367 683 q 481 631 448 652 q 536 577 515 611 q 557 500 557 544 q 469 340 557 383 q 571 192 571 288 q 563 132 571 159 q 544 85 555 104 q 513 51 533 66 q 478 26 494 35 q 438 10 463 17 q 399 1 413 3 q 361 -4 385 -2 q 331 -5 336 -5 q 307 -5 325 -5 q 200 12 257 -5 q 96 62 143 28 l 96 175 m 167 503 q 221 435 167 463 q 404 401 334 385 q 473 500 473 416 q 451 544 473 526 q 389 578 429 562 q 261 599 311 604 q 190 570 212 594 q 167 503 167 545 z "},"©":{"ha":1137,"x_min":83,"x_max":1054,"o":"m 734 241 q 558 187 656 187 q 448 213 496 187 q 370 281 399 239 q 325 375 340 323 q 310 481 310 426 q 327 587 310 536 q 377 680 344 637 q 464 747 410 722 q 587 772 519 772 q 733 734 674 772 l 733 628 q 694 660 707 650 q 653 679 682 669 q 587 689 624 689 q 439 633 486 689 q 393 481 393 577 q 433 327 393 384 q 558 271 473 271 q 594 272 578 271 q 626 280 610 274 q 651 289 642 286 q 675 302 661 292 q 694 316 690 313 q 715 333 699 319 q 734 349 731 346 l 734 241 m 83 486 q 122 674 83 585 q 225 829 160 764 q 380 932 290 894 q 568 971 470 971 q 757 932 667 971 q 912 829 847 894 q 1015 674 977 764 q 1054 486 1054 585 q 1015 297 1054 387 q 912 142 977 208 q 757 39 847 77 q 568 0 667 0 q 380 39 470 0 q 225 142 290 77 q 122 297 160 208 q 83 486 83 387 m 167 486 q 218 279 167 371 q 361 135 270 187 q 568 83 453 83 q 857 197 743 83 q 971 486 971 311 q 919 693 971 601 q 775 836 867 785 q 568 888 684 888 q 407 858 482 888 q 280 774 332 827 q 197 647 227 721 q 167 486 167 572 z "},"«":{"ha":513,"x_min":83,"x_max":431,"o":"m 431 98 l 319 98 l 83 366 l 83 428 l 319 694 l 431 694 l 167 397 l 167 396 l 431 98 z "},"®":{"ha":635,"x_min":41,"x_max":595,"o":"m 215 844 l 304 844 q 393 818 361 844 q 425 747 425 791 q 366 663 425 688 q 404 631 389 652 q 436 579 419 610 q 471 526 453 547 l 436 526 q 404 577 420 548 q 378 620 387 607 q 350 642 370 632 q 300 652 330 652 l 243 652 l 243 526 l 215 526 l 215 844 m 123 483 q 82 524 123 483 q 41 677 41 564 q 123 872 41 791 q 318 954 205 954 q 513 872 431 954 q 595 677 595 791 q 514 483 595 564 q 318 401 433 401 q 123 483 205 401 m 141 854 q 105 818 141 854 q 69 677 69 782 q 141 501 69 573 q 318 429 214 429 q 495 501 423 429 q 567 677 567 573 q 495 854 567 782 q 318 926 422 926 q 141 854 214 926 m 243 676 l 301 676 q 374 695 349 676 q 399 747 399 713 q 375 799 399 780 q 304 818 351 818 l 243 818 l 243 676 z "},"°":{"ha":573,"x_min":83,"x_max":490,"o":"m 288 608 q 384 646 347 608 q 421 743 421 684 q 384 839 421 802 q 288 876 347 876 q 190 839 227 876 q 153 743 153 802 q 190 646 153 684 q 288 608 227 608 m 83 743 q 143 887 83 827 q 288 946 202 946 q 431 886 372 946 q 490 743 490 827 q 431 599 490 659 q 288 539 372 539 q 143 599 202 539 q 83 743 83 659 z "},"±":{"ha":861,"x_min":139,"x_max":722,"o":"m 722 562 l 722 479 l 472 479 l 472 229 l 389 229 l 389 479 l 139 479 l 139 562 l 389 562 l 389 812 l 472 812 l 472 562 l 722 562 m 139 -1 l 139 82 l 722 82 l 722 -1 l 139 -1 z "},"¶":{"ha":772,"x_min":83,"x_max":689,"o":"m 606 972 l 689 972 l 689 -278 l 606 -278 l 606 972 m 83 704 q 161 892 83 813 q 349 972 239 972 l 432 972 l 432 -278 l 349 -278 l 349 436 q 161 516 239 437 q 83 704 83 594 z "},"·":{"ha":667,"x_min":278,"x_max":389,"o":"m 373 397 q 365 389 373 397 q 334 380 357 380 q 294 397 311 380 q 278 437 278 414 q 294 475 278 459 q 334 492 311 492 q 373 476 357 492 q 389 437 389 460 q 373 397 389 414 z "},"»":{"ha":791,"x_min":83,"x_max":708,"o":"m 83 98 l 347 396 l 347 397 l 83 694 l 195 694 l 431 428 l 431 366 l 195 98 l 83 98 m 361 98 l 625 396 l 625 397 l 361 694 l 472 694 l 708 428 l 708 366 l 472 98 l 361 98 z "},"¿":{"ha":615,"x_min":79,"x_max":532,"o":"m 298 649 q 307 657 298 649 q 338 665 315 665 q 377 649 361 665 q 393 608 393 632 q 377 570 393 587 q 338 554 361 554 q 298 570 315 554 q 282 608 282 587 q 298 649 282 632 m 182 138 q 240 191 217 165 q 275 236 263 216 q 293 284 288 255 q 300 332 299 313 q 301 391 301 351 q 301 401 301 398 l 385 401 q 385 389 385 397 q 384 344 385 359 q 381 301 384 329 q 373 257 378 274 q 357 214 368 240 q 330 168 346 189 q 290 121 315 146 q 235 71 266 96 q 179 5 198 41 q 161 -67 159 -32 q 180 -132 163 -102 q 237 -179 198 -161 q 328 -197 275 -197 q 433 -175 385 -197 q 532 -114 481 -152 l 532 -216 q 328 -281 436 -281 q 216 -259 266 -281 q 137 -204 167 -238 q 93 -125 107 -170 q 84 -34 79 -80 q 114 58 89 12 q 182 138 139 103 z "},"À":{"ha":883,"x_min":28,"x_max":854,"o":"m 854 0 l 774 0 l 633 389 l 253 389 l 110 0 l 28 0 l 387 972 l 505 972 l 854 0 m 282 465 l 607 465 l 452 896 l 440 896 l 282 465 m 345 1194 l 446 1194 l 490 1032 l 389 1032 l 345 1194 z "},"Á":{"ha":883,"x_min":28,"x_max":854,"o":"m 854 0 l 774 0 l 633 389 l 253 389 l 110 0 l 28 0 l 387 972 l 505 972 l 854 0 m 282 465 l 607 465 l 452 896 l 440 896 l 282 465 m 424 1032 l 468 1194 l 554 1194 l 510 1032 l 424 1032 z "},"Â":{"ha":883,"x_min":28,"x_max":854,"o":"m 854 0 l 774 0 l 633 389 l 253 389 l 110 0 l 28 0 l 387 972 l 505 972 l 854 0 m 211 1068 l 418 1229 l 476 1229 l 682 1068 l 629 1013 l 447 1161 l 264 1013 l 211 1068 m 282 465 l 607 465 l 452 896 l 440 896 l 282 465 z "},"Ã":{"ha":883,"x_min":28,"x_max":854,"o":"m 854 0 l 774 0 l 633 389 l 253 389 l 110 0 l 28 0 l 387 972 l 505 972 l 854 0 m 264 1063 q 291 1148 264 1111 q 367 1192 318 1185 q 482 1154 415 1200 q 542 1132 519 1128 q 576 1155 566 1136 q 587 1202 587 1173 l 657 1202 q 629 1115 657 1154 q 553 1066 601 1076 q 443 1099 506 1057 q 392 1124 414 1118 q 358 1121 370 1129 q 339 1099 345 1114 q 334 1063 334 1084 l 264 1063 m 282 465 l 607 465 l 452 896 l 440 896 l 282 465 z "},"Ä":{"ha":883,"x_min":28,"x_max":854,"o":"m 854 0 l 774 0 l 633 389 l 253 389 l 110 0 l 28 0 l 387 972 l 505 972 l 854 0 m 158 1114 q 174 1152 158 1135 q 214 1168 191 1168 q 253 1152 237 1168 q 269 1114 269 1135 q 253 1074 269 1090 q 214 1057 237 1057 q 174 1074 191 1057 q 158 1114 158 1090 m 282 465 l 607 465 l 452 896 l 440 896 l 282 465 m 625 1114 q 642 1152 625 1135 q 681 1168 658 1168 q 720 1152 704 1168 q 736 1114 736 1135 q 720 1074 736 1090 q 681 1057 704 1057 q 642 1074 658 1057 q 625 1114 625 1090 z "},"Å":{"ha":883,"x_min":28,"x_max":854,"o":"m 854 0 l 774 0 l 633 389 l 253 389 l 110 0 l 28 0 l 387 972 l 505 972 l 854 0 m 326 1065 q 301 1090 326 1065 q 277 1185 277 1115 q 327 1305 277 1255 q 446 1356 376 1356 q 566 1305 515 1356 q 616 1185 616 1255 q 566 1065 616 1115 q 446 1015 515 1015 q 326 1065 376 1015 m 282 465 l 607 465 l 452 896 l 440 896 l 282 465 m 378 1253 q 365 1240 378 1253 q 353 1185 353 1227 q 378 1117 353 1142 q 446 1092 403 1092 q 514 1117 488 1092 q 541 1185 541 1142 q 514 1253 541 1227 q 446 1279 488 1279 q 378 1253 403 1279 z "},"Æ":{"ha":1396,"x_min":28,"x_max":1340,"o":"m 621 0 l 621 389 l 253 389 l 110 0 l 28 0 l 387 972 l 1318 972 l 1318 896 l 704 896 l 704 562 l 1193 562 l 1193 486 l 704 486 l 704 77 l 1340 77 l 1340 0 l 621 0 m 282 465 l 621 465 l 621 896 l 440 896 l 282 465 z "},"Ç":{"ha":926,"x_min":65,"x_max":843,"o":"m 843 111 q 533 -16 703 -5 q 531 -70 533 -46 q 522 -124 529 -93 q 498 -184 515 -155 q 456 -241 481 -214 l 395 -184 q 440 -110 430 -149 q 450 -16 450 -72 q 309 24 374 -8 q 200 105 245 56 q 125 218 156 155 q 80 349 94 281 q 65 488 65 416 q 83 634 65 563 q 139 770 100 705 q 233 884 178 836 q 368 961 288 932 q 545 990 449 990 q 717 963 638 990 q 843 886 795 936 l 843 789 q 707 878 778 848 q 545 907 637 907 q 365 872 443 907 q 241 777 287 837 q 172 644 195 718 q 149 488 149 571 q 161 360 149 420 q 201 245 174 299 q 268 152 228 191 q 365 90 307 113 q 493 66 423 66 q 558 71 526 66 q 615 82 590 75 q 666 100 640 88 q 709 120 692 111 q 748 145 726 130 q 782 171 770 161 q 814 196 793 180 q 843 220 835 213 l 843 111 z "},"È":{"ha":886,"x_min":111,"x_max":831,"o":"m 111 0 l 111 972 l 808 972 l 808 896 l 195 896 l 195 562 l 684 562 l 684 486 l 195 486 l 195 77 l 831 77 l 831 0 l 111 0 m 368 1194 l 469 1194 l 514 1032 l 412 1032 l 368 1194 z "},"É":{"ha":886,"x_min":111,"x_max":831,"o":"m 111 0 l 111 972 l 808 972 l 808 896 l 195 896 l 195 562 l 684 562 l 684 486 l 195 486 l 195 77 l 831 77 l 831 0 l 111 0 m 447 1032 l 492 1194 l 578 1194 l 533 1032 l 447 1032 z "},"Ê":{"ha":886,"x_min":111,"x_max":831,"o":"m 111 0 l 111 972 l 808 972 l 808 896 l 195 896 l 195 562 l 684 562 l 684 486 l 195 486 l 195 77 l 831 77 l 831 0 l 111 0 m 235 1068 l 441 1229 l 500 1229 l 705 1068 l 653 1013 l 471 1161 l 288 1013 l 235 1068 z "},"Ë":{"ha":886,"x_min":111,"x_max":831,"o":"m 111 0 l 111 972 l 808 972 l 808 896 l 195 896 l 195 562 l 684 562 l 684 486 l 195 486 l 195 77 l 831 77 l 831 0 l 111 0 m 182 1114 q 198 1152 182 1135 q 237 1168 214 1168 q 277 1152 260 1168 q 293 1114 293 1135 q 277 1074 293 1090 q 237 1057 260 1057 q 198 1074 214 1057 q 182 1114 182 1090 m 648 1114 q 665 1152 648 1135 q 704 1168 681 1168 q 743 1152 727 1168 q 760 1114 760 1135 q 743 1074 760 1090 q 704 1057 727 1057 q 665 1074 681 1057 q 648 1114 648 1090 z "},"Ì":{"ha":305,"x_min":50,"x_max":196,"o":"m 111 972 l 195 972 l 195 0 l 111 0 l 111 972 m 50 1194 l 151 1194 l 196 1032 l 94 1032 l 50 1194 z "},"Í":{"ha":305,"x_min":111,"x_max":244,"o":"m 111 972 l 195 972 l 195 0 l 111 0 l 111 972 m 114 1032 l 158 1194 l 244 1194 l 200 1032 l 114 1032 z "},"Î":{"ha":305,"x_min":-83,"x_max":387,"o":"m 111 972 l 195 972 l 195 0 l 111 0 l 111 972 m -83 1068 l 123 1229 l 182 1229 l 387 1068 l 335 1013 l 153 1161 l -31 1013 l -83 1068 z "},"Ï":{"ha":305,"x_min":4,"x_max":313,"o":"m 111 972 l 195 972 l 195 0 l 111 0 l 111 972 m 4 1114 q 20 1152 4 1135 q 60 1168 37 1168 q 99 1152 83 1168 q 115 1114 115 1135 q 99 1074 115 1090 q 60 1057 83 1057 q 20 1074 37 1057 q 4 1114 4 1090 m 201 1114 q 218 1152 201 1135 q 257 1168 234 1168 q 296 1152 280 1168 q 313 1114 313 1135 q 296 1074 313 1090 q 257 1057 280 1057 q 218 1074 234 1057 q 201 1114 201 1090 z "},"Ð":{"ha":943,"x_min":-3,"x_max":901,"o":"m 111 0 l 111 447 l -3 447 l -3 524 l 111 524 l 111 972 l 478 972 q 644 938 567 972 q 779 841 722 903 q 868 687 836 779 q 901 484 901 594 q 844 228 901 338 q 688 58 786 117 q 467 0 589 0 l 111 0 m 195 83 l 467 83 q 723 187 629 83 q 818 484 818 291 q 726 784 818 679 q 478 889 634 889 l 195 889 l 195 524 l 551 524 l 551 447 l 195 447 l 195 83 z "},"Ñ":{"ha":1038,"x_min":111,"x_max":928,"o":"m 111 972 l 212 972 l 851 93 l 851 972 l 928 972 l 928 0 l 825 0 l 187 876 l 187 0 l 111 0 l 111 972 m 336 1063 q 363 1148 336 1111 q 439 1192 391 1185 q 554 1154 487 1200 q 614 1133 591 1129 q 649 1155 638 1136 q 660 1202 660 1173 l 729 1202 q 701 1114 729 1153 q 626 1066 673 1076 q 515 1099 578 1057 q 464 1124 486 1118 q 430 1121 442 1129 q 412 1099 418 1114 q 406 1063 406 1084 l 336 1063 z "},"Ò":{"ha":1036,"x_min":83,"x_max":953,"o":"m 519 62 q 709 118 629 62 q 829 269 789 174 q 869 486 869 364 q 846 653 869 576 q 779 787 823 730 q 669 876 736 844 q 519 908 602 908 q 368 876 435 908 q 257 787 300 844 q 190 653 213 730 q 167 486 167 576 q 207 269 167 364 q 327 118 246 174 q 519 62 408 62 m 83 486 q 112 683 83 591 q 193 843 140 774 q 331 952 247 912 q 519 991 414 991 q 706 952 623 991 q 843 843 789 912 q 925 683 897 774 q 953 486 953 591 q 925 288 953 380 q 843 127 897 197 q 706 19 789 58 q 519 -21 623 -21 q 331 19 414 -21 q 193 127 247 58 q 112 288 140 197 q 83 486 83 380 m 415 1194 l 517 1194 l 561 1032 l 460 1032 l 415 1194 z "},"Ó":{"ha":1036,"x_min":83,"x_max":953,"o":"m 519 62 q 709 118 629 62 q 829 269 789 174 q 869 486 869 364 q 846 653 869 576 q 779 787 823 730 q 669 876 736 844 q 519 908 602 908 q 368 876 435 908 q 257 787 300 844 q 190 653 213 730 q 167 486 167 576 q 207 269 167 364 q 327 118 246 174 q 519 62 408 62 m 83 486 q 112 683 83 591 q 193 843 140 774 q 331 952 247 912 q 519 991 414 991 q 706 952 623 991 q 843 843 789 912 q 925 683 897 774 q 953 486 953 591 q 925 288 953 380 q 843 127 897 197 q 706 19 789 58 q 519 -21 623 -21 q 331 19 414 -21 q 193 127 247 58 q 112 288 140 197 q 83 486 83 380 m 494 1032 l 539 1194 l 625 1194 l 581 1032 l 494 1032 z "},"Ô":{"ha":1036,"x_min":83,"x_max":953,"o":"m 519 62 q 709 118 629 62 q 829 269 789 174 q 869 486 869 364 q 846 653 869 576 q 779 787 823 730 q 669 876 736 844 q 519 908 602 908 q 368 876 435 908 q 257 787 300 844 q 190 653 213 730 q 167 486 167 576 q 207 269 167 364 q 327 118 246 174 q 519 62 408 62 m 83 486 q 112 683 83 591 q 193 843 140 774 q 331 952 247 912 q 519 991 414 991 q 706 952 623 991 q 843 843 789 912 q 925 683 897 774 q 953 486 953 591 q 925 288 953 380 q 843 127 897 197 q 706 19 789 58 q 519 -21 623 -21 q 331 19 414 -21 q 193 127 247 58 q 112 288 140 197 q 83 486 83 380 m 282 1068 l 489 1229 l 547 1229 l 753 1068 l 700 1013 l 518 1161 l 335 1013 l 282 1068 z "},"Õ":{"ha":1036,"x_min":83,"x_max":953,"o":"m 519 62 q 709 118 629 62 q 829 269 789 174 q 869 486 869 364 q 846 653 869 576 q 779 787 823 730 q 669 876 736 844 q 519 908 602 908 q 368 876 435 908 q 257 787 300 844 q 190 653 213 730 q 167 486 167 576 q 207 269 167 364 q 327 118 246 174 q 519 62 408 62 m 83 486 q 112 683 83 591 q 193 843 140 774 q 331 952 247 912 q 519 991 414 991 q 706 952 623 991 q 843 843 789 912 q 925 683 897 774 q 953 486 953 591 q 925 288 953 380 q 843 127 897 197 q 706 19 789 58 q 519 -21 623 -21 q 331 19 414 -21 q 193 127 247 58 q 112 288 140 197 q 83 486 83 380 m 335 1063 q 362 1148 335 1111 q 437 1192 389 1185 q 553 1154 486 1200 q 613 1133 589 1129 q 648 1155 637 1136 q 659 1202 659 1173 l 728 1202 q 700 1114 728 1153 q 625 1066 672 1076 q 514 1099 577 1057 q 463 1124 485 1118 q 429 1121 441 1129 q 410 1099 416 1114 q 404 1063 404 1084 l 335 1063 z "},"Ö":{"ha":1036,"x_min":83,"x_max":953,"o":"m 519 62 q 709 118 629 62 q 829 269 789 174 q 869 486 869 364 q 846 653 869 576 q 779 787 823 730 q 669 876 736 844 q 519 908 602 908 q 368 876 435 908 q 257 787 300 844 q 190 653 213 730 q 167 486 167 576 q 207 269 167 364 q 327 118 246 174 q 519 62 408 62 m 83 486 q 112 683 83 591 q 193 843 140 774 q 331 952 247 912 q 519 991 414 991 q 706 952 623 991 q 843 843 789 912 q 925 683 897 774 q 953 486 953 591 q 925 288 953 380 q 843 127 897 197 q 706 19 789 58 q 519 -21 623 -21 q 331 19 414 -21 q 193 127 247 58 q 112 288 140 197 q 83 486 83 380 m 229 1114 q 245 1152 229 1135 q 285 1168 262 1168 q 324 1152 308 1168 q 340 1114 340 1135 q 324 1074 340 1090 q 285 1057 308 1057 q 245 1074 262 1057 q 229 1114 229 1090 m 696 1114 q 712 1152 696 1135 q 751 1168 728 1168 q 791 1152 774 1168 q 807 1114 807 1135 q 791 1074 807 1090 q 751 1057 774 1057 q 712 1074 728 1057 q 696 1114 696 1090 z "},"×":{"ha":833,"x_min":195,"x_max":667,"o":"m 667 281 l 607 222 l 431 399 l 254 222 l 195 281 l 371 457 l 195 635 l 254 693 l 431 517 l 607 693 l 667 635 l 489 457 l 667 281 z "},"Ø":{"ha":1036,"x_min":83,"x_max":953,"o":"m 519 62 q 709 118 629 62 q 829 269 789 174 q 869 486 869 364 q 770 799 869 682 l 340 110 q 519 62 418 62 m 83 486 q 112 683 83 591 q 193 843 140 774 q 331 952 247 912 q 519 991 414 991 q 758 922 660 991 l 790 974 l 879 974 l 817 872 q 918 704 883 804 q 953 486 953 604 q 925 288 953 380 q 843 127 897 197 q 706 19 789 58 q 519 -21 623 -21 q 294 37 392 -21 l 248 -39 l 158 -39 l 235 83 q 122 257 161 153 q 83 486 83 361 m 167 486 q 281 157 167 273 l 713 850 q 519 908 632 908 q 368 876 435 908 q 257 787 300 844 q 190 653 213 730 q 167 486 167 576 z "},"Ù":{"ha":1053,"x_min":111,"x_max":942,"o":"m 859 972 l 942 972 l 942 408 q 528 -16 942 -16 q 111 408 111 -16 l 111 972 l 195 972 l 195 408 q 274 146 195 225 q 528 68 353 68 q 780 146 701 68 q 859 408 859 224 l 859 972 m 424 1194 l 525 1194 l 570 1032 l 468 1032 l 424 1194 z "},"Ú":{"ha":1053,"x_min":111,"x_max":942,"o":"m 859 972 l 942 972 l 942 408 q 528 -16 942 -16 q 111 408 111 -16 l 111 972 l 195 972 l 195 408 q 274 146 195 225 q 528 68 353 68 q 780 146 701 68 q 859 408 859 224 l 859 972 m 503 1032 l 547 1194 l 633 1194 l 589 1032 l 503 1032 z "},"Û":{"ha":1053,"x_min":111,"x_max":942,"o":"m 859 972 l 942 972 l 942 408 q 528 -16 942 -16 q 111 408 111 -16 l 111 972 l 195 972 l 195 408 q 274 146 195 225 q 528 68 353 68 q 780 146 701 68 q 859 408 859 224 l 859 972 m 290 1068 l 497 1229 l 555 1229 l 761 1068 l 708 1013 l 526 1161 l 343 1013 l 290 1068 z "},"Ü":{"ha":1053,"x_min":111,"x_max":942,"o":"m 859 972 l 942 972 l 942 408 q 528 -16 942 -16 q 111 408 111 -16 l 111 972 l 195 972 l 195 408 q 274 146 195 225 q 528 68 353 68 q 780 146 701 68 q 859 408 859 224 l 859 972 m 237 1114 q 254 1152 237 1135 q 293 1168 270 1168 q 332 1152 316 1168 q 349 1114 349 1135 q 332 1074 349 1090 q 293 1057 316 1057 q 254 1074 270 1057 q 237 1114 237 1090 m 704 1114 q 720 1152 704 1135 q 760 1168 736 1168 q 799 1152 783 1168 q 815 1114 815 1135 q 799 1074 815 1090 q 760 1057 783 1057 q 720 1074 736 1057 q 704 1114 704 1090 z "},"Ý":{"ha":802,"x_min":14,"x_max":789,"o":"m 439 0 l 355 0 l 355 338 l 14 971 l 109 971 l 401 429 l 703 972 l 789 972 l 439 340 l 439 0 m 378 1032 l 422 1194 l 509 1194 l 464 1032 l 378 1032 z "},"Þ":{"ha":886,"x_min":111,"x_max":803,"o":"m 111 972 l 195 972 l 195 821 l 406 821 q 695 734 588 821 q 803 501 803 648 q 693 271 803 355 q 395 186 583 186 l 195 186 l 195 0 l 111 0 l 111 972 m 195 262 l 395 262 q 636 326 553 262 q 720 501 720 389 q 639 680 720 615 q 406 745 558 745 l 195 745 l 195 262 z "},"à":{"ha":883,"x_min":28,"x_max":854,"o":"m 854 0 l 774 0 l 633 389 l 253 389 l 110 0 l 28 0 l 387 972 l 505 972 l 854 0 m 282 465 l 607 465 l 452 896 l 440 896 l 282 465 m 345 1194 l 446 1194 l 490 1032 l 389 1032 l 345 1194 z "},"á":{"ha":883,"x_min":28,"x_max":854,"o":"m 854 0 l 774 0 l 633 389 l 253 389 l 110 0 l 28 0 l 387 972 l 505 972 l 854 0 m 282 465 l 607 465 l 452 896 l 440 896 l 282 465 m 424 1032 l 468 1194 l 554 1194 l 510 1032 l 424 1032 z "},"â":{"ha":883,"x_min":28,"x_max":854,"o":"m 854 0 l 774 0 l 633 389 l 253 389 l 110 0 l 28 0 l 387 972 l 505 972 l 854 0 m 211 1068 l 418 1229 l 476 1229 l 682 1068 l 629 1013 l 447 1161 l 264 1013 l 211 1068 m 282 465 l 607 465 l 452 896 l 440 896 l 282 465 z "},"ã":{"ha":883,"x_min":28,"x_max":854,"o":"m 854 0 l 774 0 l 633 389 l 253 389 l 110 0 l 28 0 l 387 972 l 505 972 l 854 0 m 264 1063 q 291 1148 264 1111 q 367 1192 318 1185 q 482 1154 415 1200 q 542 1132 519 1128 q 576 1155 566 1136 q 587 1202 587 1173 l 657 1202 q 629 1115 657 1154 q 553 1066 601 1076 q 443 1099 506 1057 q 392 1124 414 1118 q 358 1121 370 1129 q 339 1099 345 1114 q 334 1063 334 1084 l 264 1063 m 282 465 l 607 465 l 452 896 l 440 896 l 282 465 z "},"ä":{"ha":883,"x_min":28,"x_max":854,"o":"m 854 0 l 774 0 l 633 389 l 253 389 l 110 0 l 28 0 l 387 972 l 505 972 l 854 0 m 158 1114 q 174 1152 158 1135 q 214 1168 191 1168 q 253 1152 237 1168 q 269 1114 269 1135 q 253 1074 269 1090 q 214 1057 237 1057 q 174 1074 191 1057 q 158 1114 158 1090 m 282 465 l 607 465 l 452 896 l 440 896 l 282 465 m 625 1114 q 642 1152 625 1135 q 681 1168 658 1168 q 720 1152 704 1168 q 736 1114 736 1135 q 720 1074 736 1090 q 681 1057 704 1057 q 642 1074 658 1057 q 625 1114 625 1090 z "},"å":{"ha":883,"x_min":28,"x_max":854,"o":"m 854 0 l 774 0 l 633 389 l 253 389 l 110 0 l 28 0 l 387 972 l 505 972 l 854 0 m 326 1065 q 301 1090 326 1065 q 277 1185 277 1115 q 327 1305 277 1255 q 446 1356 376 1356 q 566 1305 515 1356 q 616 1185 616 1255 q 566 1065 616 1115 q 446 1015 515 1015 q 326 1065 376 1015 m 282 465 l 607 465 l 452 896 l 440 896 l 282 465 m 378 1253 q 365 1240 378 1253 q 353 1185 353 1227 q 378 1117 353 1142 q 446 1092 403 1092 q 514 1117 488 1092 q 541 1185 541 1142 q 514 1253 541 1227 q 446 1279 488 1279 q 378 1253 403 1279 z "},"æ":{"ha":1396,"x_min":28,"x_max":1340,"o":"m 621 0 l 621 389 l 253 389 l 110 0 l 28 0 l 387 972 l 1318 972 l 1318 896 l 704 896 l 704 562 l 1193 562 l 1193 486 l 704 486 l 704 77 l 1340 77 l 1340 0 l 621 0 m 282 465 l 621 465 l 621 896 l 440 896 l 282 465 z "},"ç":{"ha":926,"x_min":65,"x_max":843,"o":"m 843 111 q 533 -16 703 -5 q 531 -70 533 -46 q 522 -124 529 -93 q 498 -184 515 -155 q 456 -241 481 -214 l 395 -184 q 440 -110 430 -149 q 450 -16 450 -72 q 309 24 374 -8 q 200 105 245 56 q 125 218 156 155 q 80 349 94 281 q 65 488 65 416 q 83 634 65 563 q 139 770 100 705 q 233 884 178 836 q 368 961 288 932 q 545 990 449 990 q 717 963 638 990 q 843 886 795 936 l 843 789 q 707 878 778 848 q 545 907 637 907 q 365 872 443 907 q 241 777 287 837 q 172 644 195 718 q 149 488 149 571 q 161 360 149 420 q 201 245 174 299 q 268 152 228 191 q 365 90 307 113 q 493 66 423 66 q 558 71 526 66 q 615 82 590 75 q 666 100 640 88 q 709 120 692 111 q 748 145 726 130 q 782 171 770 161 q 814 196 793 180 q 843 220 835 213 l 843 111 z "},"è":{"ha":886,"x_min":111,"x_max":831,"o":"m 111 0 l 111 972 l 808 972 l 808 896 l 195 896 l 195 562 l 684 562 l 684 486 l 195 486 l 195 77 l 831 77 l 831 0 l 111 0 m 368 1194 l 469 1194 l 514 1032 l 412 1032 l 368 1194 z "},"é":{"ha":886,"x_min":111,"x_max":831,"o":"m 111 0 l 111 972 l 808 972 l 808 896 l 195 896 l 195 562 l 684 562 l 684 486 l 195 486 l 195 77 l 831 77 l 831 0 l 111 0 m 447 1032 l 492 1194 l 578 1194 l 533 1032 l 447 1032 z "},"ê":{"ha":886,"x_min":111,"x_max":831,"o":"m 111 0 l 111 972 l 808 972 l 808 896 l 195 896 l 195 562 l 684 562 l 684 486 l 195 486 l 195 77 l 831 77 l 831 0 l 111 0 m 235 1068 l 441 1229 l 500 1229 l 705 1068 l 653 1013 l 471 1161 l 288 1013 l 235 1068 z "},"ë":{"ha":886,"x_min":111,"x_max":831,"o":"m 111 0 l 111 972 l 808 972 l 808 896 l 195 896 l 195 562 l 684 562 l 684 486 l 195 486 l 195 77 l 831 77 l 831 0 l 111 0 m 182 1114 q 198 1152 182 1135 q 237 1168 214 1168 q 277 1152 260 1168 q 293 1114 293 1135 q 277 1074 293 1090 q 237 1057 260 1057 q 198 1074 214 1057 q 182 1114 182 1090 m 648 1114 q 665 1152 648 1135 q 704 1168 681 1168 q 743 1152 727 1168 q 760 1114 760 1135 q 743 1074 760 1090 q 704 1057 727 1057 q 665 1074 681 1057 q 648 1114 648 1090 z "},"ì":{"ha":305,"x_min":50,"x_max":196,"o":"m 111 972 l 195 972 l 195 0 l 111 0 l 111 972 m 50 1194 l 151 1194 l 196 1032 l 94 1032 l 50 1194 z "},"í":{"ha":305,"x_min":111,"x_max":244,"o":"m 111 972 l 195 972 l 195 0 l 111 0 l 111 972 m 114 1032 l 158 1194 l 244 1194 l 200 1032 l 114 1032 z "},"î":{"ha":305,"x_min":-83,"x_max":387,"o":"m 111 972 l 195 972 l 195 0 l 111 0 l 111 972 m -83 1068 l 123 1229 l 182 1229 l 387 1068 l 335 1013 l 153 1161 l -31 1013 l -83 1068 z "},"ï":{"ha":305,"x_min":4,"x_max":313,"o":"m 111 972 l 195 972 l 195 0 l 111 0 l 111 972 m 4 1114 q 20 1152 4 1135 q 60 1168 37 1168 q 99 1152 83 1168 q 115 1114 115 1135 q 99 1074 115 1090 q 60 1057 83 1057 q 20 1074 37 1057 q 4 1114 4 1090 m 201 1114 q 218 1152 201 1135 q 257 1168 234 1168 q 296 1152 280 1168 q 313 1114 313 1135 q 296 1074 313 1090 q 257 1057 280 1057 q 218 1074 234 1057 q 201 1114 201 1090 z "},"ð":{"ha":943,"x_min":-3,"x_max":901,"o":"m 111 0 l 111 447 l -3 447 l -3 524 l 111 524 l 111 972 l 478 972 q 644 938 567 972 q 779 841 722 903 q 868 687 836 779 q 901 484 901 594 q 844 228 901 338 q 688 58 786 117 q 467 0 589 0 l 111 0 m 195 83 l 467 83 q 723 187 629 83 q 818 484 818 291 q 726 784 818 679 q 478 889 634 889 l 195 889 l 195 524 l 551 524 l 551 447 l 195 447 l 195 83 z "},"ñ":{"ha":1038,"x_min":111,"x_max":928,"o":"m 111 972 l 212 972 l 851 93 l 851 972 l 928 972 l 928 0 l 825 0 l 187 876 l 187 0 l 111 0 l 111 972 m 336 1063 q 363 1148 336 1111 q 439 1192 391 1185 q 554 1154 487 1200 q 614 1133 591 1129 q 649 1155 638 1136 q 660 1202 660 1173 l 729 1202 q 701 1114 729 1153 q 626 1066 673 1076 q 515 1099 578 1057 q 464 1124 486 1118 q 430 1121 442 1129 q 412 1099 418 1114 q 406 1063 406 1084 l 336 1063 z "},"ò":{"ha":1036,"x_min":83,"x_max":953,"o":"m 519 62 q 709 118 629 62 q 829 269 789 174 q 869 486 869 364 q 846 653 869 576 q 779 787 823 730 q 669 876 736 844 q 519 908 602 908 q 368 876 435 908 q 257 787 300 844 q 190 653 213 730 q 167 486 167 576 q 207 269 167 364 q 327 118 246 174 q 519 62 408 62 m 83 486 q 112 683 83 591 q 193 843 140 774 q 331 952 247 912 q 519 991 414 991 q 706 952 623 991 q 843 843 789 912 q 925 683 897 774 q 953 486 953 591 q 925 288 953 380 q 843 127 897 197 q 706 19 789 58 q 519 -21 623 -21 q 331 19 414 -21 q 193 127 247 58 q 112 288 140 197 q 83 486 83 380 m 415 1194 l 517 1194 l 561 1032 l 460 1032 l 415 1194 z "},"ó":{"ha":1036,"x_min":83,"x_max":953,"o":"m 519 62 q 709 118 629 62 q 829 269 789 174 q 869 486 869 364 q 846 653 869 576 q 779 787 823 730 q 669 876 736 844 q 519 908 602 908 q 368 876 435 908 q 257 787 300 844 q 190 653 213 730 q 167 486 167 576 q 207 269 167 364 q 327 118 246 174 q 519 62 408 62 m 83 486 q 112 683 83 591 q 193 843 140 774 q 331 952 247 912 q 519 991 414 991 q 706 952 623 991 q 843 843 789 912 q 925 683 897 774 q 953 486 953 591 q 925 288 953 380 q 843 127 897 197 q 706 19 789 58 q 519 -21 623 -21 q 331 19 414 -21 q 193 127 247 58 q 112 288 140 197 q 83 486 83 380 m 494 1032 l 539 1194 l 625 1194 l 581 1032 l 494 1032 z "},"ô":{"ha":1036,"x_min":83,"x_max":953,"o":"m 519 62 q 709 118 629 62 q 829 269 789 174 q 869 486 869 364 q 846 653 869 576 q 779 787 823 730 q 669 876 736 844 q 519 908 602 908 q 368 876 435 908 q 257 787 300 844 q 190 653 213 730 q 167 486 167 576 q 207 269 167 364 q 327 118 246 174 q 519 62 408 62 m 83 486 q 112 683 83 591 q 193 843 140 774 q 331 952 247 912 q 519 991 414 991 q 706 952 623 991 q 843 843 789 912 q 925 683 897 774 q 953 486 953 591 q 925 288 953 380 q 843 127 897 197 q 706 19 789 58 q 519 -21 623 -21 q 331 19 414 -21 q 193 127 247 58 q 112 288 140 197 q 83 486 83 380 m 282 1068 l 489 1229 l 547 1229 l 753 1068 l 700 1013 l 518 1161 l 335 1013 l 282 1068 z "},"õ":{"ha":1036,"x_min":83,"x_max":953,"o":"m 519 62 q 709 118 629 62 q 829 269 789 174 q 869 486 869 364 q 846 653 869 576 q 779 787 823 730 q 669 876 736 844 q 519 908 602 908 q 368 876 435 908 q 257 787 300 844 q 190 653 213 730 q 167 486 167 576 q 207 269 167 364 q 327 118 246 174 q 519 62 408 62 m 83 486 q 112 683 83 591 q 193 843 140 774 q 331 952 247 912 q 519 991 414 991 q 706 952 623 991 q 843 843 789 912 q 925 683 897 774 q 953 486 953 591 q 925 288 953 380 q 843 127 897 197 q 706 19 789 58 q 519 -21 623 -21 q 331 19 414 -21 q 193 127 247 58 q 112 288 140 197 q 83 486 83 380 m 335 1063 q 362 1148 335 1111 q 437 1192 389 1185 q 553 1154 486 1200 q 613 1133 589 1129 q 648 1155 637 1136 q 659 1202 659 1173 l 728 1202 q 700 1114 728 1153 q 625 1066 672 1076 q 514 1099 577 1057 q 463 1124 485 1118 q 429 1121 441 1129 q 410 1099 416 1114 q 404 1063 404 1084 l 335 1063 z "},"ö":{"ha":1036,"x_min":83,"x_max":953,"o":"m 519 62 q 709 118 629 62 q 829 269 789 174 q 869 486 869 364 q 846 653 869 576 q 779 787 823 730 q 669 876 736 844 q 519 908 602 908 q 368 876 435 908 q 257 787 300 844 q 190 653 213 730 q 167 486 167 576 q 207 269 167 364 q 327 118 246 174 q 519 62 408 62 m 83 486 q 112 683 83 591 q 193 843 140 774 q 331 952 247 912 q 519 991 414 991 q 706 952 623 991 q 843 843 789 912 q 925 683 897 774 q 953 486 953 591 q 925 288 953 380 q 843 127 897 197 q 706 19 789 58 q 519 -21 623 -21 q 331 19 414 -21 q 193 127 247 58 q 112 288 140 197 q 83 486 83 380 m 229 1114 q 245 1152 229 1135 q 285 1168 262 1168 q 324 1152 308 1168 q 340 1114 340 1135 q 324 1074 340 1090 q 285 1057 308 1057 q 245 1074 262 1057 q 229 1114 229 1090 m 696 1114 q 712 1152 696 1135 q 751 1168 728 1168 q 791 1152 774 1168 q 807 1114 807 1135 q 791 1074 807 1090 q 751 1057 774 1057 q 712 1074 728 1057 q 696 1114 696 1090 z "},"÷":{"ha":861,"x_min":139,"x_max":722,"o":"m 722 485 l 722 401 l 139 401 l 139 485 l 722 485 m 375 239 q 391 277 375 260 q 431 293 408 293 q 470 277 454 293 q 486 239 486 260 q 470 198 486 215 q 431 182 454 182 q 391 198 408 182 q 375 239 375 215 m 375 656 q 391 694 375 677 q 431 710 408 710 q 470 694 454 710 q 486 656 486 677 q 470 615 486 632 q 431 599 454 599 q 391 615 408 599 q 375 656 375 632 z "},"ø":{"ha":1036,"x_min":83,"x_max":953,"o":"m 519 62 q 709 118 629 62 q 829 269 789 174 q 869 486 869 364 q 770 799 869 682 l 340 110 q 519 62 418 62 m 83 486 q 112 683 83 591 q 193 843 140 774 q 331 952 247 912 q 519 991 414 991 q 758 922 660 991 l 790 974 l 879 974 l 817 872 q 918 704 883 804 q 953 486 953 604 q 925 288 953 380 q 843 127 897 197 q 706 19 789 58 q 519 -21 623 -21 q 294 37 392 -21 l 248 -39 l 158 -39 l 235 83 q 122 257 161 153 q 83 486 83 361 m 167 486 q 281 157 167 273 l 713 850 q 519 908 632 908 q 368 876 435 908 q 257 787 300 844 q 190 653 213 730 q 167 486 167 576 z "},"ù":{"ha":1053,"x_min":111,"x_max":942,"o":"m 859 972 l 942 972 l 942 408 q 528 -16 942 -16 q 111 408 111 -16 l 111 972 l 195 972 l 195 408 q 274 146 195 225 q 528 68 353 68 q 780 146 701 68 q 859 408 859 224 l 859 972 m 424 1194 l 525 1194 l 570 1032 l 468 1032 l 424 1194 z "},"ú":{"ha":1053,"x_min":111,"x_max":942,"o":"m 859 972 l 942 972 l 942 408 q 528 -16 942 -16 q 111 408 111 -16 l 111 972 l 195 972 l 195 408 q 274 146 195 225 q 528 68 353 68 q 780 146 701 68 q 859 408 859 224 l 859 972 m 503 1032 l 547 1194 l 633 1194 l 589 1032 l 503 1032 z "},"û":{"ha":1053,"x_min":111,"x_max":942,"o":"m 859 972 l 942 972 l 942 408 q 528 -16 942 -16 q 111 408 111 -16 l 111 972 l 195 972 l 195 408 q 274 146 195 225 q 528 68 353 68 q 780 146 701 68 q 859 408 859 224 l 859 972 m 290 1068 l 497 1229 l 555 1229 l 761 1068 l 708 1013 l 526 1161 l 343 1013 l 290 1068 z "},"ü":{"ha":1053,"x_min":111,"x_max":942,"o":"m 859 972 l 942 972 l 942 408 q 528 -16 942 -16 q 111 408 111 -16 l 111 972 l 195 972 l 195 408 q 274 146 195 225 q 528 68 353 68 q 780 146 701 68 q 859 408 859 224 l 859 972 m 237 1114 q 254 1152 237 1135 q 293 1168 270 1168 q 332 1152 316 1168 q 349 1114 349 1135 q 332 1074 349 1090 q 293 1057 316 1057 q 254 1074 270 1057 q 237 1114 237 1090 m 704 1114 q 720 1152 704 1135 q 760 1168 736 1168 q 799 1152 783 1168 q 815 1114 815 1135 q 799 1074 815 1090 q 760 1057 783 1057 q 720 1074 736 1057 q 704 1114 704 1090 z "},"ý":{"ha":802,"x_min":14,"x_max":789,"o":"m 439 0 l 355 0 l 355 338 l 14 971 l 109 971 l 401 429 l 703 972 l 789 972 l 439 340 l 439 0 m 378 1032 l 422 1194 l 509 1194 l 464 1032 l 378 1032 z "},"þ":{"ha":886,"x_min":111,"x_max":803,"o":"m 111 972 l 195 972 l 195 821 l 406 821 q 695 734 588 821 q 803 501 803 648 q 693 271 803 355 q 395 186 583 186 l 195 186 l 195 0 l 111 0 l 111 972 m 195 262 l 395 262 q 636 326 553 262 q 720 501 720 389 q 639 680 720 615 q 406 745 558 745 l 195 745 l 195 262 z "},"ÿ":{"ha":802,"x_min":14,"x_max":789,"o":"m 439 0 l 355 0 l 355 338 l 14 971 l 109 971 l 401 429 l 703 972 l 789 972 l 439 340 l 439 0 m 113 1114 q 129 1152 113 1135 q 168 1168 145 1168 q 208 1152 191 1168 q 224 1114 224 1135 q 208 1074 224 1090 q 168 1057 191 1057 q 129 1074 145 1057 q 113 1114 113 1090 m 579 1114 q 595 1152 579 1135 q 635 1168 612 1168 q 674 1152 658 1168 q 690 1114 690 1135 q 674 1074 690 1090 q 635 1057 658 1057 q 595 1074 612 1057 q 579 1114 579 1090 z "},"Ā":{"ha":883,"x_min":28,"x_max":854,"o":"m 854 0 l 774 0 l 633 389 l 253 389 l 110 0 l 28 0 l 387 972 l 505 972 l 854 0 m 170 1060 l 170 1136 l 724 1136 l 724 1060 l 170 1060 m 282 465 l 607 465 l 452 896 l 440 896 l 282 465 z "},"ā":{"ha":883,"x_min":28,"x_max":854,"o":"m 854 0 l 774 0 l 633 389 l 253 389 l 110 0 l 28 0 l 387 972 l 505 972 l 854 0 m 170 1060 l 170 1136 l 724 1136 l 724 1060 l 170 1060 m 282 465 l 607 465 l 452 896 l 440 896 l 282 465 z "},"Ă":{"ha":883,"x_min":28,"x_max":854,"o":"m 854 0 l 774 0 l 633 389 l 253 389 l 110 0 l 28 0 l 387 972 l 505 972 l 854 0 m 191 1272 l 267 1272 q 271 1229 267 1251 q 287 1183 275 1208 q 318 1141 299 1159 q 370 1111 337 1122 q 447 1099 404 1099 q 523 1111 490 1099 q 575 1141 556 1122 q 607 1183 595 1159 q 624 1229 620 1208 q 628 1272 628 1251 l 704 1272 q 698 1215 704 1245 q 674 1150 692 1185 q 629 1087 656 1115 q 554 1041 602 1059 q 447 1022 507 1022 q 339 1041 387 1022 q 264 1088 292 1060 q 220 1152 237 1116 q 197 1217 203 1187 q 191 1272 191 1246 m 282 465 l 607 465 l 452 896 l 440 896 l 282 465 z "},"ă":{"ha":883,"x_min":28,"x_max":854,"o":"m 854 0 l 774 0 l 633 389 l 253 389 l 110 0 l 28 0 l 387 972 l 505 972 l 854 0 m 191 1272 l 267 1272 q 271 1229 267 1251 q 287 1183 275 1208 q 318 1141 299 1159 q 370 1111 337 1122 q 447 1099 404 1099 q 523 1111 490 1099 q 575 1141 556 1122 q 607 1183 595 1159 q 624 1229 620 1208 q 628 1272 628 1251 l 704 1272 q 698 1215 704 1245 q 674 1150 692 1185 q 629 1087 656 1115 q 554 1041 602 1059 q 447 1022 507 1022 q 339 1041 387 1022 q 264 1088 292 1060 q 220 1152 237 1116 q 197 1217 203 1187 q 191 1272 191 1246 m 282 465 l 607 465 l 452 896 l 440 896 l 282 465 z "},"Ą":{"ha":883,"x_min":28,"x_max":909,"o":"m 854 0 q 856 -52 854 -35 q 861 -95 857 -68 q 878 -143 865 -122 q 909 -184 890 -164 l 851 -241 q 806 -181 823 -212 q 783 -114 789 -149 q 775 -57 777 -78 q 774 0 774 -37 l 633 389 l 253 389 l 110 0 l 28 0 l 387 972 l 505 972 l 854 0 m 282 465 l 607 465 l 452 896 l 440 896 l 282 465 z "},"ą":{"ha":883,"x_min":28,"x_max":909,"o":"m 854 0 q 856 -52 854 -35 q 861 -95 857 -68 q 878 -143 865 -122 q 909 -184 890 -164 l 851 -241 q 806 -181 823 -212 q 783 -114 789 -149 q 775 -57 777 -78 q 774 0 774 -37 l 633 389 l 253 389 l 110 0 l 28 0 l 387 972 l 505 972 l 854 0 m 282 465 l 607 465 l 452 896 l 440 896 l 282 465 z "},"Ć":{"ha":926,"x_min":65,"x_max":843,"o":"m 843 111 q 493 -17 688 -17 q 336 12 408 -17 q 215 90 264 41 q 131 204 165 139 q 81 341 97 270 q 65 488 65 413 q 83 634 65 563 q 139 770 100 705 q 233 884 178 836 q 368 961 288 932 q 545 990 449 990 q 717 963 638 990 q 843 886 795 936 l 843 789 q 707 878 778 848 q 545 907 637 907 q 365 872 443 907 q 241 777 287 837 q 172 644 195 718 q 149 488 149 571 q 161 360 149 420 q 201 245 174 299 q 268 152 228 191 q 365 90 307 113 q 493 66 423 66 q 558 71 526 66 q 615 82 590 75 q 666 100 640 88 q 709 120 692 111 q 748 145 726 130 q 782 171 770 161 q 814 196 793 180 q 843 220 835 213 l 843 111 m 521 1032 l 566 1194 l 652 1194 l 607 1032 l 521 1032 z "},"ć":{"ha":926,"x_min":65,"x_max":843,"o":"m 843 111 q 493 -17 688 -17 q 336 12 408 -17 q 215 90 264 41 q 131 204 165 139 q 81 341 97 270 q 65 488 65 413 q 83 634 65 563 q 139 770 100 705 q 233 884 178 836 q 368 961 288 932 q 545 990 449 990 q 717 963 638 990 q 843 886 795 936 l 843 789 q 707 878 778 848 q 545 907 637 907 q 365 872 443 907 q 241 777 287 837 q 172 644 195 718 q 149 488 149 571 q 161 360 149 420 q 201 245 174 299 q 268 152 228 191 q 365 90 307 113 q 493 66 423 66 q 558 71 526 66 q 615 82 590 75 q 666 100 640 88 q 709 120 692 111 q 748 145 726 130 q 782 171 770 161 q 814 196 793 180 q 843 220 835 213 l 843 111 m 521 1032 l 566 1194 l 652 1194 l 607 1032 l 521 1032 z "},"Ċ":{"ha":926,"x_min":65,"x_max":843,"o":"m 843 111 q 493 -17 688 -17 q 336 12 408 -17 q 215 90 264 41 q 131 204 165 139 q 81 341 97 270 q 65 488 65 413 q 83 634 65 563 q 139 770 100 705 q 233 884 178 836 q 368 961 288 932 q 545 990 449 990 q 717 963 638 990 q 843 886 795 936 l 843 789 q 707 878 778 848 q 545 907 637 907 q 365 872 443 907 q 241 777 287 837 q 172 644 195 718 q 149 488 149 571 q 161 360 149 420 q 201 245 174 299 q 268 152 228 191 q 365 90 307 113 q 493 66 423 66 q 558 71 526 66 q 615 82 590 75 q 666 100 640 88 q 709 120 692 111 q 748 145 726 130 q 782 171 770 161 q 814 196 793 180 q 843 220 835 213 l 843 111 m 489 1118 q 505 1156 489 1140 q 545 1173 522 1173 q 584 1156 568 1173 q 600 1118 600 1140 q 584 1078 600 1095 q 545 1061 568 1061 q 505 1078 522 1061 q 489 1118 489 1095 z "},"ċ":{"ha":926,"x_min":65,"x_max":843,"o":"m 843 111 q 493 -17 688 -17 q 336 12 408 -17 q 215 90 264 41 q 131 204 165 139 q 81 341 97 270 q 65 488 65 413 q 83 634 65 563 q 139 770 100 705 q 233 884 178 836 q 368 961 288 932 q 545 990 449 990 q 717 963 638 990 q 843 886 795 936 l 843 789 q 707 878 778 848 q 545 907 637 907 q 365 872 443 907 q 241 777 287 837 q 172 644 195 718 q 149 488 149 571 q 161 360 149 420 q 201 245 174 299 q 268 152 228 191 q 365 90 307 113 q 493 66 423 66 q 558 71 526 66 q 615 82 590 75 q 666 100 640 88 q 709 120 692 111 q 748 145 726 130 q 782 171 770 161 q 814 196 793 180 q 843 220 835 213 l 843 111 m 489 1118 q 505 1156 489 1140 q 545 1173 522 1173 q 584 1156 568 1173 q 600 1118 600 1140 q 584 1078 600 1095 q 545 1061 568 1061 q 505 1078 522 1061 q 489 1118 489 1095 z "},"Č":{"ha":926,"x_min":65,"x_max":843,"o":"m 843 111 q 493 -17 688 -17 q 336 12 408 -17 q 215 90 264 41 q 131 204 165 139 q 81 341 97 270 q 65 488 65 413 q 83 634 65 563 q 139 770 100 705 q 233 884 178 836 q 368 961 288 932 q 545 990 449 990 q 717 963 638 990 q 843 886 795 936 l 843 789 q 707 878 778 848 q 545 907 637 907 q 365 872 443 907 q 241 777 287 837 q 172 644 195 718 q 149 488 149 571 q 161 360 149 420 q 201 245 174 299 q 268 152 228 191 q 365 90 307 113 q 493 66 423 66 q 558 71 526 66 q 615 82 590 75 q 666 100 640 88 q 709 120 692 111 q 748 145 726 130 q 782 171 770 161 q 814 196 793 180 q 843 220 835 213 l 843 111 m 309 1207 l 361 1263 l 545 1114 l 726 1263 l 779 1207 l 574 1047 l 515 1046 l 309 1207 z "},"č":{"ha":926,"x_min":65,"x_max":843,"o":"m 843 111 q 493 -17 688 -17 q 336 12 408 -17 q 215 90 264 41 q 131 204 165 139 q 81 341 97 270 q 65 488 65 413 q 83 634 65 563 q 139 770 100 705 q 233 884 178 836 q 368 961 288 932 q 545 990 449 990 q 717 963 638 990 q 843 886 795 936 l 843 789 q 707 878 778 848 q 545 907 637 907 q 365 872 443 907 q 241 777 287 837 q 172 644 195 718 q 149 488 149 571 q 161 360 149 420 q 201 245 174 299 q 268 152 228 191 q 365 90 307 113 q 493 66 423 66 q 558 71 526 66 q 615 82 590 75 q 666 100 640 88 q 709 120 692 111 q 748 145 726 130 q 782 171 770 161 q 814 196 793 180 q 843 220 835 213 l 843 111 m 309 1207 l 361 1263 l 545 1114 l 726 1263 l 779 1207 l 574 1047 l 515 1046 l 309 1207 z "},"Ď":{"ha":943,"x_min":111,"x_max":901,"o":"m 111 0 l 111 972 l 478 972 q 644 938 567 972 q 779 841 722 903 q 868 687 836 779 q 901 484 901 594 q 844 228 901 338 q 688 58 786 117 q 467 0 589 0 l 111 0 m 195 83 l 467 83 q 723 187 629 83 q 818 484 818 291 q 726 784 818 679 q 478 889 634 889 l 195 889 l 195 83 m 236 1207 l 289 1263 l 472 1114 l 654 1263 l 707 1207 l 501 1047 l 443 1046 l 236 1207 z "},"ď":{"ha":943,"x_min":111,"x_max":901,"o":"m 111 0 l 111 972 l 478 972 q 644 938 567 972 q 779 841 722 903 q 868 687 836 779 q 901 484 901 594 q 844 228 901 338 q 688 58 786 117 q 467 0 589 0 l 111 0 m 195 83 l 467 83 q 723 187 629 83 q 818 484 818 291 q 726 784 818 679 q 478 889 634 889 l 195 889 l 195 83 m 236 1207 l 289 1263 l 472 1114 l 654 1263 l 707 1207 l 501 1047 l 443 1046 l 236 1207 z "},"Đ":{"ha":943,"x_min":-3,"x_max":901,"o":"m 111 0 l 111 447 l -3 447 l -3 524 l 111 524 l 111 972 l 478 972 q 644 938 567 972 q 779 841 722 903 q 868 687 836 779 q 901 484 901 594 q 844 228 901 338 q 688 58 786 117 q 467 0 589 0 l 111 0 m 195 83 l 467 83 q 723 187 629 83 q 818 484 818 291 q 726 784 818 679 q 478 889 634 889 l 195 889 l 195 524 l 551 524 l 551 447 l 195 447 l 195 83 z "},"đ":{"ha":943,"x_min":-3,"x_max":901,"o":"m 111 0 l 111 447 l -3 447 l -3 524 l 111 524 l 111 972 l 478 972 q 644 938 567 972 q 779 841 722 903 q 868 687 836 779 q 901 484 901 594 q 844 228 901 338 q 688 58 786 117 q 467 0 589 0 l 111 0 m 195 83 l 467 83 q 723 187 629 83 q 818 484 818 291 q 726 784 818 679 q 478 889 634 889 l 195 889 l 195 524 l 551 524 l 551 447 l 195 447 l 195 83 z "},"Ē":{"ha":886,"x_min":111,"x_max":831,"o":"m 111 0 l 111 972 l 808 972 l 808 896 l 195 896 l 195 562 l 684 562 l 684 486 l 195 486 l 195 77 l 831 77 l 831 0 l 111 0 m 193 1060 l 193 1136 l 747 1136 l 747 1060 l 193 1060 z "},"ē":{"ha":886,"x_min":111,"x_max":831,"o":"m 111 0 l 111 972 l 808 972 l 808 896 l 195 896 l 195 562 l 684 562 l 684 486 l 195 486 l 195 77 l 831 77 l 831 0 l 111 0 m 193 1060 l 193 1136 l 747 1136 l 747 1060 l 193 1060 z "},"Ė":{"ha":886,"x_min":111,"x_max":831,"o":"m 111 0 l 111 972 l 808 972 l 808 896 l 195 896 l 195 562 l 684 562 l 684 486 l 195 486 l 195 77 l 831 77 l 831 0 l 111 0 m 415 1118 q 431 1156 415 1140 q 471 1173 448 1173 q 510 1156 494 1173 q 526 1118 526 1140 q 510 1078 526 1095 q 471 1061 494 1061 q 431 1078 448 1061 q 415 1118 415 1095 z "},"ė":{"ha":886,"x_min":111,"x_max":831,"o":"m 111 0 l 111 972 l 808 972 l 808 896 l 195 896 l 195 562 l 684 562 l 684 486 l 195 486 l 195 77 l 831 77 l 831 0 l 111 0 m 415 1118 q 431 1156 415 1140 q 471 1173 448 1173 q 510 1156 494 1173 q 526 1118 526 1140 q 510 1078 526 1095 q 471 1061 494 1061 q 431 1078 448 1061 q 415 1118 415 1095 z "},"Ę":{"ha":886,"x_min":111,"x_max":886,"o":"m 111 0 l 111 972 l 808 972 l 808 896 l 195 896 l 195 562 l 684 562 l 684 486 l 195 486 l 195 77 l 831 77 l 831 0 q 832 -52 831 -34 q 838 -95 833 -69 q 854 -143 842 -121 q 886 -184 867 -164 l 828 -241 q 783 -181 800 -212 q 760 -114 766 -149 q 751 -57 753 -79 q 750 0 750 -36 l 111 0 z "},"ę":{"ha":886,"x_min":111,"x_max":886,"o":"m 111 0 l 111 972 l 808 972 l 808 896 l 195 896 l 195 562 l 684 562 l 684 486 l 195 486 l 195 77 l 831 77 l 831 0 q 832 -52 831 -34 q 838 -95 833 -69 q 854 -143 842 -121 q 886 -184 867 -164 l 828 -241 q 783 -181 800 -212 q 760 -114 766 -149 q 751 -57 753 -79 q 750 0 750 -36 l 111 0 z "},"Ě":{"ha":886,"x_min":111,"x_max":831,"o":"m 111 0 l 111 972 l 808 972 l 808 896 l 195 896 l 195 562 l 684 562 l 684 486 l 195 486 l 195 77 l 831 77 l 831 0 l 111 0 m 235 1207 l 288 1263 l 471 1114 l 653 1263 l 705 1207 l 500 1047 l 441 1046 l 235 1207 z "},"ě":{"ha":886,"x_min":111,"x_max":831,"o":"m 111 0 l 111 972 l 808 972 l 808 896 l 195 896 l 195 562 l 684 562 l 684 486 l 195 486 l 195 77 l 831 77 l 831 0 l 111 0 m 235 1207 l 288 1263 l 471 1114 l 653 1263 l 705 1207 l 500 1047 l 441 1046 l 235 1207 z "},"Ğ":{"ha":1010,"x_min":83,"x_max":932,"o":"m 568 380 l 568 464 l 926 464 q 921 336 932 401 q 878 206 909 270 q 800 92 847 142 q 681 11 753 42 q 521 -20 608 -20 q 361 9 434 -20 q 237 88 288 39 q 151 202 186 137 q 100 339 116 268 q 83 485 83 410 q 101 633 83 560 q 156 771 119 706 q 245 885 193 836 q 372 963 298 934 q 532 991 446 991 q 718 959 642 991 q 828 890 793 926 l 828 791 q 704 876 781 844 q 532 908 627 908 q 372 873 443 908 q 257 778 300 838 q 190 643 213 718 q 167 485 167 568 q 180 358 167 418 q 221 243 193 297 q 290 150 249 189 q 390 87 331 110 q 521 64 450 64 q 633 81 582 64 q 721 129 684 99 q 783 200 757 159 q 824 286 810 241 q 843 380 838 331 l 568 380 m 275 1272 l 351 1272 q 355 1229 351 1251 q 372 1183 359 1208 q 403 1141 384 1159 q 455 1111 422 1122 q 532 1099 488 1099 q 608 1111 574 1099 q 660 1141 641 1122 q 692 1183 680 1159 q 709 1229 705 1208 q 713 1272 713 1251 l 789 1272 q 783 1215 789 1245 q 759 1150 777 1185 q 713 1087 741 1115 q 639 1041 686 1059 q 532 1022 592 1022 q 424 1041 471 1022 q 349 1088 376 1060 q 305 1152 322 1116 q 281 1217 288 1187 q 275 1272 275 1246 z "},"ğ":{"ha":1010,"x_min":83,"x_max":932,"o":"m 568 380 l 568 464 l 926 464 q 921 336 932 401 q 878 206 909 270 q 800 92 847 142 q 681 11 753 42 q 521 -20 608 -20 q 361 9 434 -20 q 237 88 288 39 q 151 202 186 137 q 100 339 116 268 q 83 485 83 410 q 101 633 83 560 q 156 771 119 706 q 245 885 193 836 q 372 963 298 934 q 532 991 446 991 q 718 959 642 991 q 828 890 793 926 l 828 791 q 704 876 781 844 q 532 908 627 908 q 372 873 443 908 q 257 778 300 838 q 190 643 213 718 q 167 485 167 568 q 180 358 167 418 q 221 243 193 297 q 290 150 249 189 q 390 87 331 110 q 521 64 450 64 q 633 81 582 64 q 721 129 684 99 q 783 200 757 159 q 824 286 810 241 q 843 380 838 331 l 568 380 m 275 1272 l 351 1272 q 355 1229 351 1251 q 372 1183 359 1208 q 403 1141 384 1159 q 455 1111 422 1122 q 532 1099 488 1099 q 608 1111 574 1099 q 660 1141 641 1122 q 692 1183 680 1159 q 709 1229 705 1208 q 713 1272 713 1251 l 789 1272 q 783 1215 789 1245 q 759 1150 777 1185 q 713 1087 741 1115 q 639 1041 686 1059 q 532 1022 592 1022 q 424 1041 471 1022 q 349 1088 376 1060 q 305 1152 322 1116 q 281 1217 288 1187 q 275 1272 275 1246 z "},"Ġ":{"ha":1010,"x_min":83,"x_max":932,"o":"m 568 380 l 568 464 l 926 464 q 921 336 932 401 q 878 206 909 270 q 800 92 847 142 q 681 11 753 42 q 521 -20 608 -20 q 361 9 434 -20 q 237 88 288 39 q 151 202 186 137 q 100 339 116 268 q 83 485 83 410 q 101 633 83 560 q 156 771 119 706 q 245 885 193 836 q 372 963 298 934 q 532 991 446 991 q 718 959 642 991 q 828 890 793 926 l 828 791 q 704 876 781 844 q 532 908 627 908 q 372 873 443 908 q 257 778 300 838 q 190 643 213 718 q 167 485 167 568 q 180 358 167 418 q 221 243 193 297 q 290 150 249 189 q 390 87 331 110 q 521 64 450 64 q 633 81 582 64 q 721 129 684 99 q 783 200 757 159 q 824 286 810 241 q 843 380 838 331 l 568 380 m 476 1118 q 492 1156 476 1140 q 532 1173 509 1173 q 571 1156 555 1173 q 587 1118 587 1140 q 571 1078 587 1095 q 532 1061 555 1061 q 492 1078 509 1061 q 476 1118 476 1095 z "},"ġ":{"ha":1010,"x_min":83,"x_max":932,"o":"m 568 380 l 568 464 l 926 464 q 921 336 932 401 q 878 206 909 270 q 800 92 847 142 q 681 11 753 42 q 521 -20 608 -20 q 361 9 434 -20 q 237 88 288 39 q 151 202 186 137 q 100 339 116 268 q 83 485 83 410 q 101 633 83 560 q 156 771 119 706 q 245 885 193 836 q 372 963 298 934 q 532 991 446 991 q 718 959 642 991 q 828 890 793 926 l 828 791 q 704 876 781 844 q 532 908 627 908 q 372 873 443 908 q 257 778 300 838 q 190 643 213 718 q 167 485 167 568 q 180 358 167 418 q 221 243 193 297 q 290 150 249 189 q 390 87 331 110 q 521 64 450 64 q 633 81 582 64 q 721 129 684 99 q 783 200 757 159 q 824 286 810 241 q 843 380 838 331 l 568 380 m 476 1118 q 492 1156 476 1140 q 532 1173 509 1173 q 571 1156 555 1173 q 587 1118 587 1140 q 571 1078 587 1095 q 532 1061 555 1061 q 492 1078 509 1061 q 476 1118 476 1095 z "},"Ģ":{"ha":1010,"x_min":83,"x_max":932,"o":"m 568 380 l 568 464 l 926 464 q 921 336 932 401 q 878 206 909 270 q 800 92 847 142 q 681 11 753 42 q 521 -20 608 -20 q 361 9 434 -20 q 237 88 288 39 q 151 202 186 137 q 100 339 116 268 q 83 485 83 410 q 101 633 83 560 q 156 771 119 706 q 245 885 193 836 q 372 963 298 934 q 532 991 446 991 q 718 959 642 991 q 828 890 793 926 l 828 791 q 704 876 781 844 q 532 908 627 908 q 372 873 443 908 q 257 778 300 838 q 190 643 213 718 q 167 485 167 568 q 180 358 167 418 q 221 243 193 297 q 290 150 249 189 q 390 87 331 110 q 521 64 450 64 q 633 81 582 64 q 721 129 684 99 q 783 200 757 159 q 824 286 810 241 q 843 380 838 331 l 568 380 m 436 -224 q 468 -182 456 -203 q 485 -134 480 -161 q 491 -90 490 -108 q 492 -39 492 -73 l 575 -39 q 574 -96 575 -75 q 566 -153 572 -117 q 542 -220 559 -189 q 497 -281 525 -252 l 436 -224 z "},"ģ":{"ha":1010,"x_min":83,"x_max":932,"o":"m 568 380 l 568 464 l 926 464 q 921 336 932 401 q 878 206 909 270 q 800 92 847 142 q 681 11 753 42 q 521 -20 608 -20 q 361 9 434 -20 q 237 88 288 39 q 151 202 186 137 q 100 339 116 268 q 83 485 83 410 q 101 633 83 560 q 156 771 119 706 q 245 885 193 836 q 372 963 298 934 q 532 991 446 991 q 718 959 642 991 q 828 890 793 926 l 828 791 q 704 876 781 844 q 532 908 627 908 q 372 873 443 908 q 257 778 300 838 q 190 643 213 718 q 167 485 167 568 q 180 358 167 418 q 221 243 193 297 q 290 150 249 189 q 390 87 331 110 q 521 64 450 64 q 633 81 582 64 q 721 129 684 99 q 783 200 757 159 q 824 286 810 241 q 843 380 838 331 l 568 380 m 475 1029 q 476 1087 475 1065 q 484 1144 477 1109 q 508 1211 491 1179 q 553 1272 525 1243 l 614 1214 q 582 1172 594 1194 q 565 1125 570 1151 q 559 1081 560 1099 q 558 1029 558 1063 l 475 1029 z "},"Ħ":{"ha":1017,"x_min":50,"x_max":966,"o":"m 111 972 l 195 972 l 195 789 l 822 789 l 822 972 l 905 972 l 905 789 l 966 789 l 966 713 l 905 713 l 905 0 l 822 0 l 822 484 l 195 484 l 195 0 l 111 0 l 111 713 l 50 713 l 50 789 l 111 789 l 111 972 m 195 559 l 822 559 l 822 713 l 195 713 l 195 559 z "},"ħ":{"ha":1017,"x_min":50,"x_max":966,"o":"m 111 972 l 195 972 l 195 789 l 822 789 l 822 972 l 905 972 l 905 789 l 966 789 l 966 713 l 905 713 l 905 0 l 822 0 l 822 484 l 195 484 l 195 0 l 111 0 l 111 713 l 50 713 l 50 789 l 111 789 l 111 972 m 195 559 l 822 559 l 822 713 l 195 713 l 195 559 z "},"Ĩ":{"ha":305,"x_min":-31,"x_max":363,"o":"m 111 972 l 195 972 l 195 0 l 111 0 l 111 972 m -31 1063 q -3 1148 -31 1111 q 72 1192 24 1185 q 187 1154 120 1200 q 248 1133 224 1129 q 282 1155 271 1136 q 293 1202 293 1173 l 363 1202 q 335 1115 363 1154 q 259 1066 307 1076 q 149 1099 212 1057 q 97 1124 119 1118 q 63 1121 75 1129 q 45 1099 51 1114 q 39 1063 39 1084 l -31 1063 z "},"ĩ":{"ha":305,"x_min":-31,"x_max":363,"o":"m 111 972 l 195 972 l 195 0 l 111 0 l 111 972 m -31 1063 q -3 1148 -31 1111 q 72 1192 24 1185 q 187 1154 120 1200 q 248 1133 224 1129 q 282 1155 271 1136 q 293 1202 293 1173 l 363 1202 q 335 1115 363 1154 q 259 1066 307 1076 q 149 1099 212 1057 q 97 1124 119 1118 q 63 1121 75 1129 q 45 1099 51 1114 q 39 1063 39 1084 l -31 1063 z "},"Ī":{"ha":305,"x_min":14,"x_max":292,"o":"m 111 972 l 195 972 l 195 0 l 111 0 l 111 972 m 14 1060 l 14 1136 l 292 1136 l 292 1060 l 14 1060 z "},"ī":{"ha":305,"x_min":14,"x_max":292,"o":"m 111 972 l 195 972 l 195 0 l 111 0 l 111 972 m 14 1060 l 14 1136 l 292 1136 l 292 1060 l 14 1060 z "},"Į":{"ha":305,"x_min":111,"x_max":250,"o":"m 111 972 l 195 972 l 195 0 q 196 -52 195 -34 q 201 -95 197 -69 q 218 -143 206 -121 q 250 -184 231 -164 l 192 -241 q 147 -181 164 -212 q 123 -114 130 -149 q 115 -57 117 -79 q 114 0 114 -36 l 111 0 l 111 972 z "},"į":{"ha":305,"x_min":14,"x_max":292,"o":"m 111 972 l 195 972 l 195 0 l 111 0 l 111 972 m 14 1060 l 14 1136 l 292 1136 l 292 1060 l 14 1060 z "},"İ":{"ha":305,"x_min":97,"x_max":208,"o":"m 111 972 l 195 972 l 195 0 l 111 0 l 111 972 m 97 1118 q 113 1156 97 1140 q 153 1173 130 1173 q 192 1156 176 1173 q 208 1118 208 1140 q 192 1078 208 1095 q 153 1061 176 1061 q 113 1078 130 1061 q 97 1118 97 1095 z "},"Ķ":{"ha":846,"x_min":111,"x_max":864,"o":"m 111 972 l 195 972 l 195 397 l 708 972 l 819 972 l 437 545 l 864 0 l 758 0 l 379 481 l 195 273 l 195 0 l 111 0 l 111 972 m 354 -224 q 386 -182 374 -203 q 403 -134 398 -161 q 409 -90 408 -108 q 410 -39 410 -73 l 493 -39 q 492 -96 493 -75 q 484 -153 490 -117 q 460 -220 477 -189 q 415 -281 443 -252 l 354 -224 z "},"ķ":{"ha":846,"x_min":111,"x_max":864,"o":"m 111 972 l 195 972 l 195 397 l 708 972 l 819 972 l 437 545 l 864 0 l 758 0 l 379 481 l 195 273 l 195 0 l 111 0 l 111 972 m 354 -224 q 386 -182 374 -203 q 403 -134 398 -161 q 409 -90 408 -108 q 410 -39 410 -73 l 493 -39 q 492 -96 493 -75 q 484 -153 490 -117 q 460 -220 477 -189 q 415 -281 443 -252 l 354 -224 z "},"Ĺ":{"ha":790,"x_min":111,"x_max":734,"o":"m 111 972 l 195 972 l 195 77 l 734 77 l 734 0 l 111 0 l 111 972 m 372 1032 l 416 1194 l 503 1194 l 458 1032 l 372 1032 z "},"ĺ":{"ha":790,"x_min":111,"x_max":734,"o":"m 111 972 l 195 972 l 195 77 l 734 77 l 734 0 l 111 0 l 111 972 m 372 1032 l 416 1194 l 503 1194 l 458 1032 l 372 1032 z "},"Ļ":{"ha":790,"x_min":111,"x_max":734,"o":"m 111 972 l 195 972 l 195 77 l 734 77 l 734 0 l 111 0 l 111 972 m 326 -224 q 358 -182 346 -203 q 375 -134 370 -161 q 381 -90 380 -108 q 382 -39 382 -73 l 465 -39 q 464 -96 465 -75 q 456 -153 463 -117 q 432 -220 449 -189 q 387 -281 415 -252 l 326 -224 z "},"ļ":{"ha":790,"x_min":111,"x_max":734,"o":"m 111 972 l 195 972 l 195 77 l 734 77 l 734 0 l 111 0 l 111 972 m 326 -224 q 358 -182 346 -203 q 375 -134 370 -161 q 381 -90 380 -108 q 382 -39 382 -73 l 465 -39 q 464 -96 465 -75 q 456 -153 463 -117 q 432 -220 449 -189 q 387 -281 415 -252 l 326 -224 z "},"Ľ":{"ha":790,"x_min":111,"x_max":734,"o":"m 111 972 l 195 972 l 195 77 l 734 77 l 734 0 l 111 0 l 111 972 m 160 1207 l 212 1263 l 396 1114 l 578 1263 l 631 1207 l 425 1047 l 367 1046 l 160 1207 z "},"ľ":{"ha":790,"x_min":111,"x_max":734,"o":"m 111 972 l 195 972 l 195 77 l 734 77 l 734 0 l 111 0 l 111 972 m 160 1207 l 212 1263 l 396 1114 l 578 1263 l 631 1207 l 425 1047 l 367 1046 l 160 1207 z "},"Ł":{"ha":790,"x_min":0,"x_max":734,"o":"m 111 972 l 195 972 l 195 539 l 315 639 l 315 539 l 195 439 l 195 77 l 734 77 l 734 0 l 111 0 l 111 370 l 0 278 l 0 378 l 111 469 l 111 972 z "},"ł":{"ha":790,"x_min":0,"x_max":734,"o":"m 111 972 l 195 972 l 195 539 l 315 639 l 315 539 l 195 439 l 195 77 l 734 77 l 734 0 l 111 0 l 111 370 l 0 278 l 0 378 l 111 469 l 111 972 z "},"Ń":{"ha":1038,"x_min":111,"x_max":928,"o":"m 111 972 l 212 972 l 851 93 l 851 972 l 928 972 l 928 0 l 825 0 l 187 876 l 187 0 l 111 0 l 111 972 m 496 1032 l 541 1194 l 627 1194 l 582 1032 l 496 1032 z "},"ń":{"ha":1038,"x_min":111,"x_max":928,"o":"m 111 972 l 212 972 l 851 93 l 851 972 l 928 972 l 928 0 l 825 0 l 187 876 l 187 0 l 111 0 l 111 972 m 496 1032 l 541 1194 l 627 1194 l 582 1032 l 496 1032 z "},"Ņ":{"ha":1038,"x_min":111,"x_max":928,"o":"m 111 972 l 212 972 l 851 93 l 851 972 l 928 972 l 928 0 l 825 0 l 187 876 l 187 0 l 111 0 l 111 972 m 450 -224 q 482 -182 470 -203 q 499 -134 494 -161 q 504 -90 503 -107 q 505 -39 505 -73 l 589 -39 q 587 -96 589 -75 q 579 -153 586 -117 q 556 -220 573 -189 q 511 -281 539 -252 l 450 -224 z "},"ņ":{"ha":1038,"x_min":111,"x_max":928,"o":"m 111 972 l 212 972 l 851 93 l 851 972 l 928 972 l 928 0 l 825 0 l 187 876 l 187 0 l 111 0 l 111 972 m 450 -224 q 482 -182 470 -203 q 499 -134 494 -161 q 504 -90 503 -107 q 505 -39 505 -73 l 589 -39 q 587 -96 589 -75 q 579 -153 586 -117 q 556 -220 573 -189 q 511 -281 539 -252 l 450 -224 z "},"Ň":{"ha":1038,"x_min":111,"x_max":928,"o":"m 111 972 l 212 972 l 851 93 l 851 972 l 928 972 l 928 0 l 825 0 l 187 876 l 187 0 l 111 0 l 111 972 m 283 1207 l 336 1263 l 519 1114 l 701 1263 l 754 1207 l 549 1047 l 490 1046 l 283 1207 z "},"ň":{"ha":1038,"x_min":111,"x_max":928,"o":"m 111 972 l 212 972 l 851 93 l 851 972 l 928 972 l 928 0 l 825 0 l 187 876 l 187 0 l 111 0 l 111 972 m 283 1207 l 336 1263 l 519 1114 l 701 1263 l 754 1207 l 549 1047 l 490 1046 l 283 1207 z "},"Ō":{"ha":1036,"x_min":83,"x_max":953,"o":"m 519 62 q 709 118 629 62 q 829 269 789 174 q 869 486 869 364 q 846 653 869 576 q 779 787 823 730 q 669 876 736 844 q 519 908 602 908 q 368 876 435 908 q 257 787 300 844 q 190 653 213 730 q 167 486 167 576 q 207 269 167 364 q 327 118 246 174 q 519 62 408 62 m 83 486 q 112 683 83 591 q 193 843 140 774 q 331 952 247 912 q 519 991 414 991 q 706 952 623 991 q 843 843 789 912 q 925 683 897 774 q 953 486 953 591 q 925 288 953 380 q 843 127 897 197 q 706 19 789 58 q 519 -21 623 -21 q 331 19 414 -21 q 193 127 247 58 q 112 288 140 197 q 83 486 83 380 m 240 1060 l 240 1136 l 794 1136 l 794 1060 l 240 1060 z "},"ō":{"ha":1036,"x_min":83,"x_max":953,"o":"m 519 62 q 709 118 629 62 q 829 269 789 174 q 869 486 869 364 q 846 653 869 576 q 779 787 823 730 q 669 876 736 844 q 519 908 602 908 q 368 876 435 908 q 257 787 300 844 q 190 653 213 730 q 167 486 167 576 q 207 269 167 364 q 327 118 246 174 q 519 62 408 62 m 83 486 q 112 683 83 591 q 193 843 140 774 q 331 952 247 912 q 519 991 414 991 q 706 952 623 991 q 843 843 789 912 q 925 683 897 774 q 953 486 953 591 q 925 288 953 380 q 843 127 897 197 q 706 19 789 58 q 519 -21 623 -21 q 331 19 414 -21 q 193 127 247 58 q 112 288 140 197 q 83 486 83 380 m 240 1060 l 240 1136 l 794 1136 l 794 1060 l 240 1060 z "},"Ő":{"ha":1036,"x_min":83,"x_max":953,"o":"m 519 62 q 709 118 629 62 q 829 269 789 174 q 869 486 869 364 q 846 653 869 576 q 779 787 823 730 q 669 876 736 844 q 519 908 602 908 q 368 876 435 908 q 257 787 300 844 q 190 653 213 730 q 167 486 167 576 q 207 269 167 364 q 327 118 246 174 q 519 62 408 62 m 83 486 q 112 683 83 591 q 193 843 140 774 q 331 952 247 912 q 519 991 414 991 q 706 952 623 991 q 843 843 789 912 q 925 683 897 774 q 953 486 953 591 q 925 288 953 380 q 843 127 897 197 q 706 19 789 58 q 519 -21 623 -21 q 331 19 414 -21 q 193 127 247 58 q 112 288 140 197 q 83 486 83 380 m 383 1225 l 428 1388 l 514 1388 l 469 1225 l 383 1225 m 521 1226 l 566 1389 l 652 1389 l 607 1226 l 521 1226 z "},"ő":{"ha":1036,"x_min":83,"x_max":953,"o":"m 519 62 q 709 118 629 62 q 829 269 789 174 q 869 486 869 364 q 846 653 869 576 q 779 787 823 730 q 669 876 736 844 q 519 908 602 908 q 368 876 435 908 q 257 787 300 844 q 190 653 213 730 q 167 486 167 576 q 207 269 167 364 q 327 118 246 174 q 519 62 408 62 m 83 486 q 112 683 83 591 q 193 843 140 774 q 331 952 247 912 q 519 991 414 991 q 706 952 623 991 q 843 843 789 912 q 925 683 897 774 q 953 486 953 591 q 925 288 953 380 q 843 127 897 197 q 706 19 789 58 q 519 -21 623 -21 q 331 19 414 -21 q 193 127 247 58 q 112 288 140 197 q 83 486 83 380 m 383 1225 l 428 1388 l 514 1388 l 469 1225 l 383 1225 m 521 1226 l 566 1389 l 652 1389 l 607 1226 l 521 1226 z "},"Œ":{"ha":1644,"x_min":83,"x_max":1589,"o":"m 519 62 q 709 118 629 62 q 829 269 789 174 q 869 486 869 364 q 777 791 869 673 q 519 908 684 909 q 368 876 435 908 q 257 787 300 844 q 190 653 213 730 q 167 486 167 576 q 207 269 167 364 q 327 118 246 174 q 519 62 408 62 m 83 486 q 112 683 83 591 q 193 843 140 774 q 331 952 247 912 q 519 991 414 991 q 725 942 636 991 q 869 806 814 893 l 869 972 l 1567 972 l 1567 896 l 953 896 l 953 562 l 1442 562 l 1442 486 l 953 486 l 953 77 l 1589 77 l 1589 0 l 869 0 l 869 165 q 725 28 814 77 q 519 -21 636 -21 q 331 19 414 -21 q 193 127 247 58 q 112 288 140 197 q 83 486 83 380 z "},"œ":{"ha":1644,"x_min":83,"x_max":1589,"o":"m 519 62 q 709 118 629 62 q 829 269 789 174 q 869 486 869 364 q 777 791 869 673 q 519 908 684 909 q 368 876 435 908 q 257 787 300 844 q 190 653 213 730 q 167 486 167 576 q 207 269 167 364 q 327 118 246 174 q 519 62 408 62 m 83 486 q 112 683 83 591 q 193 843 140 774 q 331 952 247 912 q 519 991 414 991 q 725 942 636 991 q 869 806 814 893 l 869 972 l 1567 972 l 1567 896 l 953 896 l 953 562 l 1442 562 l 1442 486 l 953 486 l 953 77 l 1589 77 l 1589 0 l 869 0 l 869 165 q 725 28 814 77 q 519 -21 636 -21 q 331 19 414 -21 q 193 127 247 58 q 112 288 140 197 q 83 486 83 380 z "},"Ŕ":{"ha":920,"x_min":111,"x_max":895,"o":"m 111 972 l 385 972 q 654 892 554 972 q 754 675 754 811 q 707 517 754 584 q 572 415 659 450 q 651 362 616 395 q 712 287 686 329 q 762 200 739 244 q 821 100 786 156 q 895 0 856 45 l 787 0 q 714 109 750 50 q 659 205 679 168 q 612 279 640 241 q 556 336 585 316 q 481 369 527 356 q 371 382 435 382 l 195 382 l 195 0 l 111 0 l 111 972 m 195 461 l 375 461 q 596 517 522 461 q 671 675 671 572 q 598 836 671 778 q 385 893 525 893 l 195 893 l 195 461 m 361 1032 l 406 1194 l 492 1194 l 447 1032 l 361 1032 z "},"ŕ":{"ha":920,"x_min":111,"x_max":895,"o":"m 111 972 l 385 972 q 654 892 554 972 q 754 675 754 811 q 707 517 754 584 q 572 415 659 450 q 651 362 616 395 q 712 287 686 329 q 762 200 739 244 q 821 100 786 156 q 895 0 856 45 l 787 0 q 714 109 750 50 q 659 205 679 168 q 612 279 640 241 q 556 336 585 316 q 481 369 527 356 q 371 382 435 382 l 195 382 l 195 0 l 111 0 l 111 972 m 195 461 l 375 461 q 596 517 522 461 q 671 675 671 572 q 598 836 671 778 q 385 893 525 893 l 195 893 l 195 461 m 361 1032 l 406 1194 l 492 1194 l 447 1032 l 361 1032 z "},"Ŗ":{"ha":920,"x_min":111,"x_max":895,"o":"m 111 972 l 385 972 q 654 892 554 972 q 754 675 754 811 q 707 517 754 584 q 572 415 659 450 q 651 362 616 395 q 712 287 686 329 q 762 200 739 244 q 821 100 786 156 q 895 0 856 45 l 787 0 q 714 109 750 50 q 659 205 679 168 q 612 279 640 241 q 556 336 585 316 q 481 369 527 356 q 371 382 435 382 l 195 382 l 195 0 l 111 0 l 111 972 m 195 461 l 375 461 q 596 517 522 461 q 671 675 671 572 q 598 836 671 778 q 385 893 525 893 l 195 893 l 195 461 m 392 -224 q 424 -182 412 -203 q 440 -134 436 -161 q 446 -90 445 -107 q 447 -39 447 -73 l 530 -39 q 529 -96 530 -75 q 521 -153 528 -117 q 498 -220 515 -189 q 453 -281 481 -252 l 392 -224 z "},"ŗ":{"ha":920,"x_min":111,"x_max":895,"o":"m 111 972 l 385 972 q 654 892 554 972 q 754 675 754 811 q 707 517 754 584 q 572 415 659 450 q 651 362 616 395 q 712 287 686 329 q 762 200 739 244 q 821 100 786 156 q 895 0 856 45 l 787 0 q 714 109 750 50 q 659 205 679 168 q 612 279 640 241 q 556 336 585 316 q 481 369 527 356 q 371 382 435 382 l 195 382 l 195 0 l 111 0 l 111 972 m 195 461 l 375 461 q 596 517 522 461 q 671 675 671 572 q 598 836 671 778 q 385 893 525 893 l 195 893 l 195 461 m 392 -224 q 424 -182 412 -203 q 440 -134 436 -161 q 446 -90 445 -107 q 447 -39 447 -73 l 530 -39 q 529 -96 530 -75 q 521 -153 528 -117 q 498 -220 515 -189 q 453 -281 481 -252 l 392 -224 z "},"Ř":{"ha":920,"x_min":111,"x_max":895,"o":"m 111 972 l 385 972 q 654 892 554 972 q 754 675 754 811 q 707 517 754 584 q 572 415 659 450 q 651 362 616 395 q 712 287 686 329 q 762 200 739 244 q 821 100 786 156 q 895 0 856 45 l 787 0 q 714 109 750 50 q 659 205 679 168 q 612 279 640 241 q 556 336 585 316 q 481 369 527 356 q 371 382 435 382 l 195 382 l 195 0 l 111 0 l 111 972 m 149 1207 l 201 1263 l 385 1114 l 567 1263 l 619 1207 l 414 1047 l 355 1046 l 149 1207 m 195 461 l 375 461 q 596 517 522 461 q 671 675 671 572 q 598 836 671 778 q 385 893 525 893 l 195 893 l 195 461 z "},"ř":{"ha":920,"x_min":111,"x_max":895,"o":"m 111 972 l 385 972 q 654 892 554 972 q 754 675 754 811 q 707 517 754 584 q 572 415 659 450 q 651 362 616 395 q 712 287 686 329 q 762 200 739 244 q 821 100 786 156 q 895 0 856 45 l 787 0 q 714 109 750 50 q 659 205 679 168 q 612 279 640 241 q 556 336 585 316 q 481 369 527 356 q 371 382 435 382 l 195 382 l 195 0 l 111 0 l 111 972 m 149 1207 l 201 1263 l 385 1114 l 567 1263 l 619 1207 l 414 1047 l 355 1046 l 149 1207 m 195 461 l 375 461 q 596 517 522 461 q 671 675 671 572 q 598 836 671 778 q 385 893 525 893 l 195 893 l 195 461 z "},"Ś":{"ha":854,"x_min":79,"x_max":770,"o":"m 79 201 q 251 101 151 138 q 435 66 351 64 q 597 97 541 69 q 685 254 689 143 q 651 339 684 303 q 567 397 618 375 q 454 438 515 419 q 330 479 392 457 q 217 529 268 501 q 132 605 165 557 q 97 715 99 652 q 114 822 95 774 q 163 900 132 869 q 237 950 194 930 q 322 980 279 971 q 411 990 366 989 q 574 964 491 993 q 717 897 656 936 l 717 794 q 571 876 652 843 q 414 907 490 909 q 323 895 363 905 q 249 864 283 885 q 197 807 215 844 q 180 718 179 770 q 202 652 182 681 q 256 604 222 623 q 334 567 290 584 q 425 536 377 551 q 522 506 473 522 q 613 468 570 490 q 691 419 657 446 q 746 350 725 391 q 768 257 767 309 q 761 177 770 214 q 738 114 752 140 q 699 67 723 88 q 653 32 675 45 q 602 9 632 19 q 551 -5 571 -1 q 503 -13 531 -10 q 465 -16 475 -16 q 437 -17 454 -16 q 258 12 355 -19 q 79 96 160 42 l 79 201 m 404 1032 l 449 1194 l 534 1194 l 490 1032 l 404 1032 z "},"ś":{"ha":854,"x_min":79,"x_max":770,"o":"m 79 201 q 251 101 151 138 q 435 66 351 64 q 597 97 541 69 q 685 254 689 143 q 651 339 684 303 q 567 397 618 375 q 454 438 515 419 q 330 479 392 457 q 217 529 268 501 q 132 605 165 557 q 97 715 99 652 q 114 822 95 774 q 163 900 132 869 q 237 950 194 930 q 322 980 279 971 q 411 990 366 989 q 574 964 491 993 q 717 897 656 936 l 717 794 q 571 876 652 843 q 414 907 490 909 q 323 895 363 905 q 249 864 283 885 q 197 807 215 844 q 180 718 179 770 q 202 652 182 681 q 256 604 222 623 q 334 567 290 584 q 425 536 377 551 q 522 506 473 522 q 613 468 570 490 q 691 419 657 446 q 746 350 725 391 q 768 257 767 309 q 761 177 770 214 q 738 114 752 140 q 699 67 723 88 q 653 32 675 45 q 602 9 632 19 q 551 -5 571 -1 q 503 -13 531 -10 q 465 -16 475 -16 q 437 -17 454 -16 q 258 12 355 -19 q 79 96 160 42 l 79 201 m 404 1032 l 449 1194 l 534 1194 l 490 1032 l 404 1032 z "},"Ş":{"ha":854,"x_min":79,"x_max":770,"o":"m 79 201 q 251 101 151 138 q 435 66 351 64 q 597 97 541 69 q 685 254 689 143 q 651 339 684 303 q 567 397 618 375 q 454 438 515 419 q 330 479 392 457 q 217 529 268 501 q 132 605 165 557 q 97 715 99 652 q 114 822 95 774 q 163 900 132 869 q 237 950 194 930 q 322 980 279 971 q 411 990 366 989 q 574 964 491 993 q 717 897 656 936 l 717 794 q 571 876 652 843 q 414 907 490 909 q 323 895 363 905 q 249 864 283 885 q 197 807 215 844 q 180 718 179 770 q 202 652 182 681 q 256 604 222 623 q 334 567 290 584 q 425 536 377 551 q 522 506 473 522 q 613 468 570 490 q 691 419 657 446 q 746 350 725 391 q 768 257 767 309 q 752 148 770 196 q 706 73 734 100 q 638 25 678 45 q 566 -2 598 5 q 497 -14 533 -9 q 482 -134 497 -79 q 419 -241 467 -190 l 358 -184 q 404 -111 393 -149 q 414 -17 414 -73 q 244 16 334 -14 q 79 96 153 46 l 79 201 z "},"ş":{"ha":854,"x_min":79,"x_max":770,"o":"m 79 201 q 251 101 151 138 q 435 66 351 64 q 597 97 541 69 q 685 254 689 143 q 651 339 684 303 q 567 397 618 375 q 454 438 515 419 q 330 479 392 457 q 217 529 268 501 q 132 605 165 557 q 97 715 99 652 q 114 822 95 774 q 163 900 132 869 q 237 950 194 930 q 322 980 279 971 q 411 990 366 989 q 574 964 491 993 q 717 897 656 936 l 717 794 q 571 876 652 843 q 414 907 490 909 q 323 895 363 905 q 249 864 283 885 q 197 807 215 844 q 180 718 179 770 q 202 652 182 681 q 256 604 222 623 q 334 567 290 584 q 425 536 377 551 q 522 506 473 522 q 613 468 570 490 q 691 419 657 446 q 746 350 725 391 q 768 257 767 309 q 752 148 770 196 q 706 73 734 100 q 638 25 678 45 q 566 -2 598 5 q 497 -14 533 -9 q 482 -134 497 -79 q 419 -241 467 -190 l 358 -184 q 404 -111 393 -149 q 414 -17 414 -73 q 244 16 334 -14 q 79 96 153 46 l 79 201 z "},"Š":{"ha":854,"x_min":79,"x_max":770,"o":"m 79 201 q 251 101 151 138 q 435 66 351 64 q 597 97 541 69 q 685 254 689 143 q 651 339 684 303 q 567 397 618 375 q 454 438 515 419 q 330 479 392 457 q 217 529 268 501 q 132 605 165 557 q 97 715 99 652 q 114 822 95 774 q 163 900 132 869 q 237 950 194 930 q 322 980 279 971 q 411 990 366 989 q 574 964 491 993 q 717 897 656 936 l 717 794 q 571 876 652 843 q 414 907 490 909 q 323 895 363 905 q 249 864 283 885 q 197 807 215 844 q 180 718 179 770 q 202 652 182 681 q 256 604 222 623 q 334 567 290 584 q 425 536 377 551 q 522 506 473 522 q 613 468 570 490 q 691 419 657 446 q 746 350 725 391 q 768 257 767 309 q 761 177 770 214 q 738 114 752 140 q 699 67 723 88 q 653 32 675 45 q 602 9 632 19 q 551 -5 571 -1 q 503 -13 531 -10 q 465 -16 475 -16 q 437 -17 454 -16 q 258 12 355 -19 q 79 96 160 42 l 79 201 m 192 1207 l 244 1263 l 428 1114 l 610 1263 l 663 1207 l 457 1047 l 399 1046 l 192 1207 z "},"š":{"ha":854,"x_min":79,"x_max":770,"o":"m 79 201 q 251 101 151 138 q 435 66 351 64 q 597 97 541 69 q 685 254 689 143 q 651 339 684 303 q 567 397 618 375 q 454 438 515 419 q 330 479 392 457 q 217 529 268 501 q 132 605 165 557 q 97 715 99 652 q 114 822 95 774 q 163 900 132 869 q 237 950 194 930 q 322 980 279 971 q 411 990 366 989 q 574 964 491 993 q 717 897 656 936 l 717 794 q 571 876 652 843 q 414 907 490 909 q 323 895 363 905 q 249 864 283 885 q 197 807 215 844 q 180 718 179 770 q 202 652 182 681 q 256 604 222 623 q 334 567 290 584 q 425 536 377 551 q 522 506 473 522 q 613 468 570 490 q 691 419 657 446 q 746 350 725 391 q 768 257 767 309 q 761 177 770 214 q 738 114 752 140 q 699 67 723 88 q 653 32 675 45 q 602 9 632 19 q 551 -5 571 -1 q 503 -13 531 -10 q 465 -16 475 -16 q 437 -17 454 -16 q 258 12 355 -19 q 79 96 160 42 l 79 201 m 192 1207 l 244 1263 l 428 1114 l 610 1263 l 663 1207 l 457 1047 l 399 1046 l 192 1207 z "},"Ţ":{"ha":844,"x_min":35,"x_max":810,"o":"m 810 972 l 810 889 l 464 889 l 464 0 q 463 -57 464 -36 q 454 -114 461 -79 q 431 -181 448 -149 q 386 -241 414 -212 l 325 -184 q 357 -143 345 -164 q 374 -95 369 -121 q 379 -52 378 -69 q 380 0 380 -34 l 380 889 l 35 889 l 35 972 l 810 972 z "},"ţ":{"ha":844,"x_min":35,"x_max":810,"o":"m 810 972 l 810 889 l 464 889 l 464 0 q 463 -57 464 -36 q 454 -114 461 -79 q 431 -181 448 -149 q 386 -241 414 -212 l 325 -184 q 357 -143 345 -164 q 374 -95 369 -121 q 379 -52 378 -69 q 380 0 380 -34 l 380 889 l 35 889 l 35 972 l 810 972 z "},"Ť":{"ha":844,"x_min":35,"x_max":810,"o":"m 810 972 l 810 889 l 464 889 l 464 0 l 380 0 l 380 889 l 35 889 l 35 972 l 810 972 m 186 1207 l 239 1263 l 422 1114 l 604 1263 l 657 1207 l 452 1047 l 393 1046 l 186 1207 z "},"ť":{"ha":844,"x_min":35,"x_max":810,"o":"m 810 972 l 810 889 l 464 889 l 464 0 l 380 0 l 380 889 l 35 889 l 35 972 l 810 972 m 186 1207 l 239 1263 l 422 1114 l 604 1263 l 657 1207 l 452 1047 l 393 1046 l 186 1207 z "},"Ũ":{"ha":1053,"x_min":111,"x_max":942,"o":"m 859 972 l 942 972 l 942 408 q 528 -16 942 -16 q 111 408 111 -16 l 111 972 l 195 972 l 195 408 q 274 146 195 225 q 528 68 353 68 q 780 146 701 68 q 859 408 859 224 l 859 972 m 343 1063 q 370 1148 343 1111 q 446 1192 397 1185 q 561 1154 494 1200 q 621 1133 597 1129 q 656 1155 645 1136 q 667 1202 667 1173 l 736 1202 q 708 1114 736 1153 q 633 1066 680 1076 q 522 1099 585 1057 q 471 1124 493 1118 q 437 1121 449 1129 q 418 1099 425 1114 q 412 1063 412 1084 l 343 1063 z "},"ũ":{"ha":1053,"x_min":111,"x_max":942,"o":"m 859 972 l 942 972 l 942 408 q 528 -16 942 -16 q 111 408 111 -16 l 111 972 l 195 972 l 195 408 q 274 146 195 225 q 528 68 353 68 q 780 146 701 68 q 859 408 859 224 l 859 972 m 343 1063 q 370 1148 343 1111 q 446 1192 397 1185 q 561 1154 494 1200 q 621 1133 597 1129 q 656 1155 645 1136 q 667 1202 667 1173 l 736 1202 q 708 1114 736 1153 q 633 1066 680 1076 q 522 1099 585 1057 q 471 1124 493 1118 q 437 1121 449 1129 q 418 1099 425 1114 q 412 1063 412 1084 l 343 1063 z "},"Ū":{"ha":1053,"x_min":111,"x_max":942,"o":"m 859 972 l 942 972 l 942 408 q 528 -16 942 -16 q 111 408 111 -16 l 111 972 l 195 972 l 195 408 q 274 146 195 225 q 528 68 353 68 q 780 146 701 68 q 859 408 859 224 l 859 972 m 249 1060 l 249 1136 l 803 1136 l 803 1060 l 249 1060 z "},"ū":{"ha":1053,"x_min":111,"x_max":942,"o":"m 859 972 l 942 972 l 942 408 q 528 -16 942 -16 q 111 408 111 -16 l 111 972 l 195 972 l 195 408 q 274 146 195 225 q 528 68 353 68 q 780 146 701 68 q 859 408 859 224 l 859 972 m 249 1060 l 249 1136 l 803 1136 l 803 1060 l 249 1060 z "},"Ů":{"ha":1053,"x_min":111,"x_max":942,"o":"m 859 972 l 942 972 l 942 408 q 528 -16 942 -16 q 111 408 111 -16 l 111 972 l 195 972 l 195 408 q 274 146 195 225 q 528 68 353 68 q 780 146 701 68 q 859 408 859 224 l 859 972 m 405 1065 q 380 1090 405 1065 q 355 1185 355 1115 q 405 1305 355 1255 q 525 1356 455 1356 q 645 1305 595 1356 q 696 1185 696 1255 q 645 1065 696 1115 q 525 1015 595 1015 q 405 1065 455 1015 m 457 1253 q 445 1240 457 1253 q 432 1185 432 1227 q 457 1117 432 1142 q 525 1092 482 1092 q 593 1117 568 1092 q 619 1185 619 1142 q 593 1253 619 1227 q 525 1279 568 1279 q 457 1253 482 1279 z "},"ů":{"ha":1053,"x_min":111,"x_max":942,"o":"m 859 972 l 942 972 l 942 408 q 528 -16 942 -16 q 111 408 111 -16 l 111 972 l 195 972 l 195 408 q 274 146 195 225 q 528 68 353 68 q 780 146 701 68 q 859 408 859 224 l 859 972 m 405 1065 q 380 1090 405 1065 q 355 1185 355 1115 q 405 1305 355 1255 q 525 1356 455 1356 q 645 1305 595 1356 q 696 1185 696 1255 q 645 1065 696 1115 q 525 1015 595 1015 q 405 1065 455 1015 m 457 1253 q 445 1240 457 1253 q 432 1185 432 1227 q 457 1117 432 1142 q 525 1092 482 1092 q 593 1117 568 1092 q 619 1185 619 1142 q 593 1253 619 1227 q 525 1279 568 1279 q 457 1253 482 1279 z "},"Ű":{"ha":1053,"x_min":111,"x_max":942,"o":"m 859 972 l 942 972 l 942 408 q 528 -16 942 -16 q 111 408 111 -16 l 111 972 l 195 972 l 195 408 q 274 146 195 225 q 528 68 353 68 q 780 146 701 68 q 859 408 859 224 l 859 972 m 392 1225 l 436 1388 l 522 1388 l 478 1225 l 392 1225 m 529 1226 l 574 1389 l 660 1389 l 615 1226 l 529 1226 z "},"ű":{"ha":1053,"x_min":111,"x_max":942,"o":"m 859 972 l 942 972 l 942 408 q 528 -16 942 -16 q 111 408 111 -16 l 111 972 l 195 972 l 195 408 q 274 146 195 225 q 528 68 353 68 q 780 146 701 68 q 859 408 859 224 l 859 972 m 392 1225 l 436 1388 l 522 1388 l 478 1225 l 392 1225 m 529 1226 l 574 1389 l 660 1389 l 615 1226 l 529 1226 z "},"Ų":{"ha":1053,"x_min":111,"x_max":942,"o":"m 859 972 l 942 972 l 942 408 q 707 11 942 91 q 716 -90 707 -50 q 762 -165 726 -129 l 704 -222 q 643 -123 659 -175 q 627 -8 628 -71 q 528 -16 570 -16 q 111 408 111 -16 l 111 972 l 195 972 l 195 408 q 274 146 195 225 q 528 68 353 68 q 780 146 701 68 q 859 408 859 224 l 859 972 z "},"ų":{"ha":1053,"x_min":111,"x_max":942,"o":"m 859 972 l 942 972 l 942 408 q 707 11 942 91 q 716 -90 707 -50 q 762 -165 726 -129 l 704 -222 q 643 -123 659 -175 q 627 -8 628 -71 q 528 -16 570 -16 q 111 408 111 -16 l 111 972 l 195 972 l 195 408 q 274 146 195 225 q 528 68 353 68 q 780 146 701 68 q 859 408 859 224 l 859 972 z "},"Ŵ":{"ha":1267,"x_min":14,"x_max":1254,"o":"m 272 0 l 14 971 l 96 971 l 332 87 l 589 971 l 665 971 l 932 86 l 1173 971 l 1254 971 l 990 0 l 878 0 l 628 832 l 385 0 l 272 0 m 399 1068 l 606 1229 l 664 1229 l 869 1068 l 817 1013 l 635 1161 l 452 1013 l 399 1068 z "},"ŵ":{"ha":1267,"x_min":14,"x_max":1254,"o":"m 272 0 l 14 971 l 96 971 l 332 87 l 589 971 l 665 971 l 932 86 l 1173 971 l 1254 971 l 990 0 l 878 0 l 628 832 l 385 0 l 272 0 m 399 1068 l 606 1229 l 664 1229 l 869 1068 l 817 1013 l 635 1161 l 452 1013 l 399 1068 z "},"Ŷ":{"ha":802,"x_min":14,"x_max":789,"o":"m 439 0 l 355 0 l 355 338 l 14 971 l 109 971 l 401 429 l 703 972 l 789 972 l 439 340 l 439 0 m 165 1068 l 372 1229 l 431 1229 l 636 1068 l 583 1013 l 401 1161 l 218 1013 l 165 1068 z "},"ŷ":{"ha":802,"x_min":14,"x_max":789,"o":"m 439 0 l 355 0 l 355 338 l 14 971 l 109 971 l 401 429 l 703 972 l 789 972 l 439 340 l 439 0 m 165 1068 l 372 1229 l 431 1229 l 636 1068 l 583 1013 l 401 1161 l 218 1013 l 165 1068 z "},"Ÿ":{"ha":802,"x_min":14,"x_max":789,"o":"m 439 0 l 355 0 l 355 338 l 14 971 l 109 971 l 401 429 l 703 972 l 789 972 l 439 340 l 439 0 m 113 1114 q 129 1152 113 1135 q 168 1168 145 1168 q 208 1152 191 1168 q 224 1114 224 1135 q 208 1074 224 1090 q 168 1057 191 1057 q 129 1074 145 1057 q 113 1114 113 1090 m 579 1114 q 595 1152 579 1135 q 635 1168 612 1168 q 674 1152 658 1168 q 690 1114 690 1135 q 674 1074 690 1090 q 635 1057 658 1057 q 595 1074 612 1057 q 579 1114 579 1090 z "},"Ź":{"ha":966,"x_min":111,"x_max":856,"o":"m 848 972 l 848 896 l 210 77 l 856 77 l 856 0 l 111 0 l 111 77 l 113 77 l 751 896 l 132 896 l 132 972 l 848 972 m 460 1032 l 504 1194 l 590 1194 l 546 1032 l 460 1032 z "},"ź":{"ha":966,"x_min":111,"x_max":856,"o":"m 848 972 l 848 896 l 210 77 l 856 77 l 856 0 l 111 0 l 111 77 l 113 77 l 751 896 l 132 896 l 132 972 l 848 972 m 460 1032 l 504 1194 l 590 1194 l 546 1032 l 460 1032 z "},"Ż":{"ha":966,"x_min":111,"x_max":856,"o":"m 848 972 l 848 896 l 210 77 l 856 77 l 856 0 l 111 0 l 111 77 l 113 77 l 751 896 l 132 896 l 132 972 l 848 972 m 428 1118 q 444 1156 428 1140 q 484 1173 460 1173 q 523 1156 507 1173 q 539 1118 539 1140 q 523 1078 539 1095 q 484 1061 507 1061 q 444 1078 460 1061 q 428 1118 428 1095 z "},"ż":{"ha":966,"x_min":111,"x_max":856,"o":"m 848 972 l 848 896 l 210 77 l 856 77 l 856 0 l 111 0 l 111 77 l 113 77 l 751 896 l 132 896 l 132 972 l 848 972 m 428 1118 q 444 1156 428 1140 q 484 1173 460 1173 q 523 1156 507 1173 q 539 1118 539 1140 q 523 1078 539 1095 q 484 1061 507 1061 q 444 1078 460 1061 q 428 1118 428 1095 z "},"Ž":{"ha":966,"x_min":111,"x_max":856,"o":"m 848 972 l 848 896 l 210 77 l 856 77 l 856 0 l 111 0 l 111 77 l 113 77 l 751 896 l 132 896 l 132 972 l 848 972 m 248 1207 l 300 1263 l 484 1114 l 665 1263 l 718 1207 l 513 1047 l 454 1046 l 248 1207 z "},"ž":{"ha":966,"x_min":111,"x_max":856,"o":"m 848 972 l 848 896 l 210 77 l 856 77 l 856 0 l 111 0 l 111 77 l 113 77 l 751 896 l 132 896 l 132 972 l 848 972 m 248 1207 l 300 1263 l 484 1114 l 665 1263 l 718 1207 l 513 1047 l 454 1046 l 248 1207 z "},"Ș":{"ha":854,"x_min":79,"x_max":770,"o":"m 79 201 q 251 101 151 138 q 435 66 351 64 q 597 97 541 69 q 685 254 689 143 q 651 339 684 303 q 567 397 618 375 q 454 438 515 419 q 330 479 392 457 q 217 529 268 501 q 132 605 165 557 q 97 715 99 652 q 114 822 95 774 q 163 900 132 869 q 237 950 194 930 q 322 980 279 971 q 411 990 366 989 q 574 964 491 993 q 717 897 656 936 l 717 794 q 571 876 652 843 q 414 907 490 909 q 323 895 363 905 q 249 864 283 885 q 197 807 215 844 q 180 718 179 770 q 202 652 182 681 q 256 604 222 623 q 334 567 290 584 q 425 536 377 551 q 522 506 473 522 q 613 468 570 490 q 691 419 657 446 q 746 350 725 391 q 768 257 767 309 q 761 177 770 214 q 738 114 752 140 q 699 67 723 88 q 653 32 675 45 q 602 9 632 19 q 551 -5 571 -1 q 503 -13 531 -10 q 465 -16 475 -16 q 437 -17 454 -16 q 258 12 355 -19 q 79 96 160 42 l 79 201 m 358 -224 q 390 -182 378 -203 q 407 -134 402 -161 q 413 -90 412 -108 q 414 -39 414 -73 l 497 -39 q 496 -96 497 -75 q 488 -153 494 -117 q 464 -220 481 -189 q 419 -281 447 -252 l 358 -224 z "},"ș":{"ha":854,"x_min":79,"x_max":770,"o":"m 79 201 q 251 101 151 138 q 435 66 351 64 q 597 97 541 69 q 685 254 689 143 q 651 339 684 303 q 567 397 618 375 q 454 438 515 419 q 330 479 392 457 q 217 529 268 501 q 132 605 165 557 q 97 715 99 652 q 114 822 95 774 q 163 900 132 869 q 237 950 194 930 q 322 980 279 971 q 411 990 366 989 q 574 964 491 993 q 717 897 656 936 l 717 794 q 571 876 652 843 q 414 907 490 909 q 323 895 363 905 q 249 864 283 885 q 197 807 215 844 q 180 718 179 770 q 202 652 182 681 q 256 604 222 623 q 334 567 290 584 q 425 536 377 551 q 522 506 473 522 q 613 468 570 490 q 691 419 657 446 q 746 350 725 391 q 768 257 767 309 q 761 177 770 214 q 738 114 752 140 q 699 67 723 88 q 653 32 675 45 q 602 9 632 19 q 551 -5 571 -1 q 503 -13 531 -10 q 465 -16 475 -16 q 437 -17 454 -16 q 258 12 355 -19 q 79 96 160 42 l 79 201 m 358 -224 q 390 -182 378 -203 q 407 -134 402 -161 q 413 -90 412 -108 q 414 -39 414 -73 l 497 -39 q 496 -96 497 -75 q 488 -153 494 -117 q 464 -220 481 -189 q 419 -281 447 -252 l 358 -224 z "},"Ț":{"ha":844,"x_min":35,"x_max":810,"o":"m 810 972 l 810 889 l 464 889 l 464 0 l 380 0 l 380 889 l 35 889 l 35 972 l 810 972 m 325 -224 q 357 -182 345 -203 q 374 -134 369 -161 q 379 -90 378 -108 q 380 -39 380 -73 l 464 -39 q 463 -96 464 -75 q 454 -153 461 -117 q 431 -220 448 -189 q 386 -281 414 -252 l 325 -224 z "},"ț":{"ha":844,"x_min":35,"x_max":810,"o":"m 810 972 l 810 889 l 464 889 l 464 0 l 380 0 l 380 889 l 35 889 l 35 972 l 810 972 m 325 -224 q 357 -182 345 -203 q 374 -134 369 -161 q 379 -90 378 -108 q 380 -39 380 -73 l 464 -39 q 463 -96 464 -75 q 454 -153 461 -117 q 431 -220 448 -189 q 386 -281 414 -252 l 325 -224 z "},"̀":{"ha":0,"x_min":127,"x_max":273,"o":"m 172 947 l 127 1109 l 229 1109 l 273 947 l 172 947 z "},"́":{"ha":0,"x_min":139,"x_max":269,"o":"m 225 947 l 139 947 l 183 1109 l 269 1109 l 225 947 z "},"̂":{"ha":0,"x_min":139,"x_max":610,"o":"m 610 951 l 557 896 l 375 1044 l 192 896 l 139 951 l 346 1112 l 404 1112 l 610 951 z "},"̃":{"ha":0,"x_min":272,"x_max":665,"o":"m 665 1111 q 637 1024 665 1063 q 562 976 610 985 q 452 1008 515 966 q 400 1034 422 1028 q 366 1031 378 1039 q 348 1008 354 1023 q 342 972 342 994 l 272 972 q 299 1058 272 1021 q 375 1102 326 1095 q 490 1064 423 1109 q 551 1042 527 1039 q 585 1064 574 1046 q 596 1111 596 1082 l 665 1111 z "},"̄":{"ha":0,"x_min":139,"x_max":693,"o":"m 139 1111 l 693 1111 l 693 1035 l 139 1035 l 139 1111 z "},"̆":{"ha":0,"x_min":178,"x_max":692,"o":"m 692 1111 q 686 1054 692 1084 q 662 989 680 1025 q 616 926 644 954 q 542 880 589 899 q 435 861 495 861 q 327 880 374 861 q 252 927 279 899 q 208 990 225 954 q 184 1055 190 1026 q 178 1111 178 1084 l 254 1111 q 258 1068 254 1089 q 275 1022 262 1046 q 306 979 287 998 q 358 949 325 961 q 435 937 391 937 q 511 949 477 937 q 563 979 544 961 q 595 1022 583 998 q 611 1068 607 1046 q 615 1111 615 1089 l 692 1111 z "},"̇":{"ha":0,"x_min":139,"x_max":250,"o":"m 234 1017 q 226 1009 234 1017 q 195 1000 218 1000 q 155 1017 172 1000 q 139 1057 139 1034 q 155 1095 139 1079 q 195 1111 172 1111 q 234 1095 218 1111 q 250 1057 250 1079 q 234 1017 250 1034 z "},"̈":{"ha":0,"x_min":139,"x_max":717,"o":"m 701 1017 q 692 1009 701 1017 q 661 1000 684 1000 q 622 1017 638 1000 q 606 1057 606 1034 q 622 1095 606 1079 q 661 1111 638 1111 q 701 1095 684 1111 q 717 1057 717 1079 q 701 1017 717 1034 m 139 1057 q 155 1095 139 1079 q 195 1111 172 1111 q 234 1095 218 1111 q 250 1057 250 1079 q 234 1017 250 1034 q 195 1000 218 1000 q 155 1017 172 1000 q 139 1057 139 1034 z "},"̊":{"ha":0,"x_min":139,"x_max":479,"o":"m 240 949 q 253 936 240 949 q 309 924 266 924 q 377 949 351 924 q 403 1017 403 974 q 377 1085 403 1059 q 309 1111 351 1111 q 240 1085 266 1111 q 215 1017 215 1059 q 240 949 215 974 m 189 897 q 164 922 189 897 q 139 1017 139 947 q 189 1137 139 1086 q 309 1187 239 1187 q 429 1137 378 1187 q 479 1017 479 1086 q 429 897 479 947 q 309 847 378 847 q 189 897 239 847 z "},"̋":{"ha":0,"x_min":139,"x_max":407,"o":"m 225 947 l 139 947 l 183 1109 l 269 1109 l 225 947 m 277 949 l 321 1111 l 407 1111 l 363 949 l 277 949 z "},"̌":{"ha":0,"x_min":139,"x_max":610,"o":"m 610 1014 l 404 854 l 346 852 l 139 1014 l 192 1069 l 375 921 l 557 1069 l 610 1014 z "},"̒":{"ha":0,"x_min":272,"x_max":411,"o":"m 411 1054 q 379 1012 391 1034 q 362 965 367 991 q 356 921 357 939 q 355 869 355 903 l 272 869 q 273 927 272 905 q 281 984 275 949 q 305 1051 288 1019 q 350 1112 322 1083 l 411 1054 z "},"̦":{"ha":0,"x_min":278,"x_max":416,"o":"m 278 -224 q 310 -182 298 -203 q 327 -134 322 -161 q 333 -90 332 -108 q 334 -39 334 -73 l 416 -39 q 415 -96 416 -75 q 407 -153 414 -117 q 384 -220 401 -189 q 339 -281 367 -252 l 278 -224 z "},"̧":{"ha":0,"x_min":278,"x_max":416,"o":"m 278 -224 q 310 -182 298 -203 q 327 -134 322 -161 q 333 -90 332 -108 q 334 -39 334 -73 l 416 -39 q 415 -96 416 -75 q 407 -153 414 -117 q 384 -220 401 -189 q 339 -281 367 -252 l 278 -224 z "},"̨":{"ha":0,"x_min":281,"x_max":416,"o":"m 358 -241 q 313 -181 330 -212 q 290 -114 296 -149 q 282 -57 283 -78 q 281 0 281 -37 l 361 0 q 362 -52 361 -34 q 368 -95 363 -69 q 385 -143 372 -121 q 416 -184 397 -164 l 358 -241 z "},"̵":{"ha":0,"x_min":139,"x_max":693,"o":"m 139 408 l 693 408 l 693 332 l 139 332 l 139 408 z "},"̶":{"ha":0,"x_min":140,"x_max":974,"o":"m 140 408 l 974 408 l 974 332 l 140 332 l 140 408 z "},"̷":{"ha":0,"x_min":104,"x_max":559,"o":"m 193 147 l 104 147 l 471 762 l 559 762 l 193 147 z "},"̸":{"ha":0,"x_min":89,"x_max":810,"o":"m 178 -40 l 89 -40 l 721 972 l 810 972 l 178 -40 z "},"Ẁ":{"ha":1267,"x_min":14,"x_max":1254,"o":"m 272 0 l 14 971 l 96 971 l 332 87 l 589 971 l 665 971 l 932 86 l 1173 971 l 1254 971 l 990 0 l 878 0 l 628 832 l 385 0 l 272 0 m 532 1194 l 633 1194 l 677 1032 l 576 1032 l 532 1194 z "},"ẁ":{"ha":1267,"x_min":14,"x_max":1254,"o":"m 272 0 l 14 971 l 96 971 l 332 87 l 589 971 l 665 971 l 932 86 l 1173 971 l 1254 971 l 990 0 l 878 0 l 628 832 l 385 0 l 272 0 m 532 1194 l 633 1194 l 677 1032 l 576 1032 l 532 1194 z "},"Ẃ":{"ha":1267,"x_min":14,"x_max":1254,"o":"m 272 0 l 14 971 l 96 971 l 332 87 l 589 971 l 665 971 l 932 86 l 1173 971 l 1254 971 l 990 0 l 878 0 l 628 832 l 385 0 l 272 0 m 611 1032 l 656 1194 l 742 1194 l 697 1032 l 611 1032 z "},"ẃ":{"ha":1267,"x_min":14,"x_max":1254,"o":"m 272 0 l 14 971 l 96 971 l 332 87 l 589 971 l 665 971 l 932 86 l 1173 971 l 1254 971 l 990 0 l 878 0 l 628 832 l 385 0 l 272 0 m 611 1032 l 656 1194 l 742 1194 l 697 1032 l 611 1032 z "},"Ẅ":{"ha":1267,"x_min":14,"x_max":1254,"o":"m 272 0 l 14 971 l 96 971 l 332 87 l 589 971 l 665 971 l 932 86 l 1173 971 l 1254 971 l 990 0 l 878 0 l 628 832 l 385 0 l 272 0 m 346 1114 q 362 1152 346 1135 q 401 1168 378 1168 q 441 1152 425 1168 q 457 1114 457 1135 q 441 1074 457 1090 q 401 1057 425 1057 q 362 1074 378 1057 q 346 1114 346 1090 m 812 1114 q 829 1152 812 1135 q 868 1168 845 1168 q 907 1152 891 1168 q 924 1114 924 1135 q 907 1074 924 1090 q 868 1057 891 1057 q 829 1074 845 1057 q 812 1114 812 1090 z "},"ẅ":{"ha":1267,"x_min":14,"x_max":1254,"o":"m 272 0 l 14 971 l 96 971 l 332 87 l 589 971 l 665 971 l 932 86 l 1173 971 l 1254 971 l 990 0 l 878 0 l 628 832 l 385 0 l 272 0 m 346 1114 q 362 1152 346 1135 q 401 1168 378 1168 q 441 1152 425 1168 q 457 1114 457 1135 q 441 1074 457 1090 q 401 1057 425 1057 q 362 1074 378 1057 q 346 1114 346 1090 m 812 1114 q 829 1152 812 1135 q 868 1168 845 1168 q 907 1152 891 1168 q 924 1114 924 1135 q 907 1074 924 1090 q 868 1057 891 1057 q 829 1074 845 1057 q 812 1114 812 1090 z "},"Ẽ":{"ha":886,"x_min":111,"x_max":831,"o":"m 111 0 l 111 972 l 808 972 l 808 896 l 195 896 l 195 562 l 684 562 l 684 486 l 195 486 l 195 77 l 831 77 l 831 0 l 111 0 m 288 1063 q 315 1148 288 1111 q 390 1192 342 1185 q 505 1154 438 1200 q 566 1133 542 1129 q 600 1155 589 1136 q 611 1202 611 1173 l 681 1202 q 653 1115 681 1154 q 577 1066 625 1076 q 467 1099 530 1057 q 415 1124 437 1118 q 381 1121 393 1129 q 363 1099 369 1114 q 357 1063 357 1084 l 288 1063 z "},"ẽ":{"ha":886,"x_min":111,"x_max":831,"o":"m 111 0 l 111 972 l 808 972 l 808 896 l 195 896 l 195 562 l 684 562 l 684 486 l 195 486 l 195 77 l 831 77 l 831 0 l 111 0 m 288 1063 q 315 1148 288 1111 q 390 1192 342 1185 q 505 1154 438 1200 q 566 1133 542 1129 q 600 1155 589 1136 q 611 1202 611 1173 l 681 1202 q 653 1115 681 1154 q 577 1066 625 1076 q 467 1099 530 1057 q 415 1124 437 1118 q 381 1121 393 1129 q 363 1099 369 1114 q 357 1063 357 1084 l 288 1063 z "},"Ỳ":{"ha":802,"x_min":14,"x_max":789,"o":"m 439 0 l 355 0 l 355 338 l 14 971 l 109 971 l 401 429 l 703 972 l 789 972 l 439 340 l 439 0 m 298 1194 l 400 1194 l 444 1032 l 343 1032 l 298 1194 z "},"ỳ":{"ha":802,"x_min":14,"x_max":789,"o":"m 439 0 l 355 0 l 355 338 l 14 971 l 109 971 l 401 429 l 703 972 l 789 972 l 439 340 l 439 0 m 298 1194 l 400 1194 l 444 1032 l 343 1032 l 298 1194 z "},"Ỹ":{"ha":802,"x_min":14,"x_max":789,"o":"m 439 0 l 355 0 l 355 338 l 14 971 l 109 971 l 401 429 l 703 972 l 789 972 l 439 340 l 439 0 m 218 1063 q 245 1148 218 1111 q 321 1192 273 1185 q 436 1154 369 1200 q 496 1133 473 1129 q 531 1155 520 1136 q 542 1202 542 1173 l 611 1202 q 583 1114 611 1153 q 508 1066 555 1076 q 397 1099 460 1057 q 346 1124 368 1118 q 312 1121 324 1129 q 294 1099 300 1114 q 288 1063 288 1084 l 218 1063 z "},"ỹ":{"ha":802,"x_min":14,"x_max":789,"o":"m 439 0 l 355 0 l 355 338 l 14 971 l 109 971 l 401 429 l 703 972 l 789 972 l 439 340 l 439 0 m 218 1063 q 245 1148 218 1111 q 321 1192 273 1185 q 436 1154 369 1200 q 496 1133 473 1129 q 531 1155 520 1136 q 542 1202 542 1173 l 611 1202 q 583 1114 611 1153 q 508 1066 555 1076 q 397 1099 460 1057 q 346 1124 368 1118 q 312 1121 324 1129 q 294 1099 300 1114 q 288 1063 288 1084 l 218 1063 z "},"–":{"ha":833,"x_min":83,"x_max":750,"o":"m 83 521 l 750 521 l 750 437 l 83 437 l 83 521 z "},"—":{"ha":1000,"x_min":83,"x_max":917,"o":"m 83 521 l 917 521 l 917 437 l 83 437 l 83 521 z "},"‘":{"ha":330,"x_min":83,"x_max":248,"o":"m 170 669 l 83 669 l 161 972 l 248 972 l 170 669 z "},"’":{"ha":330,"x_min":83,"x_max":248,"o":"m 170 669 l 83 669 l 161 972 l 248 972 l 170 669 z "},"‚":{"ha":264,"x_min":41,"x_max":180,"o":"m 41 -86 q 73 -44 61 -66 q 90 3 85 -23 q 96 47 95 29 q 97 98 97 64 l 180 98 q 179 41 180 62 q 171 -16 178 20 q 148 -84 165 -52 q 103 -144 131 -115 l 41 -86 z "},"“":{"ha":496,"x_min":83,"x_max":412,"o":"m 170 669 l 83 669 l 161 972 l 248 972 l 170 669 m 249 669 l 326 972 l 412 972 l 335 669 l 249 669 z "},"”":{"ha":496,"x_min":83,"x_max":412,"o":"m 170 669 l 83 669 l 161 972 l 248 972 l 170 669 m 249 669 l 326 972 l 412 972 l 335 669 l 249 669 z "},"„":{"ha":264,"x_min":41,"x_max":180,"o":"m 41 -86 q 73 -44 61 -66 q 90 3 85 -23 q 96 47 95 29 q 97 98 97 64 l 180 98 q 179 41 180 62 q 171 -16 178 20 q 148 -84 165 -52 q 103 -144 131 -115 l 41 -86 z "},"†":{"ha":694,"x_min":83,"x_max":611,"o":"m 306 974 l 389 974 l 389 742 l 611 742 l 611 659 l 389 659 l 389 1 l 306 1 l 306 659 l 83 659 l 83 742 l 306 742 l 306 974 z "},"‡":{"ha":694,"x_min":83,"x_max":611,"o":"m 306 974 l 389 974 l 389 742 l 611 742 l 611 659 l 389 659 l 389 383 l 611 383 l 611 300 l 389 300 l 389 1 l 306 1 l 306 300 l 83 300 l 83 383 l 306 383 l 306 659 l 83 659 l 83 742 l 306 742 l 306 974 z "},"•":{"ha":616,"x_min":207,"x_max":407,"o":"m 378 391 q 364 376 378 391 q 307 361 349 361 q 236 391 265 361 q 207 464 207 420 q 236 532 207 504 q 307 561 266 561 q 378 532 349 561 q 407 464 407 504 q 378 391 407 420 z "},"…":{"ha":725,"x_min":83,"x_max":642,"o":"m 400 10 q 392 2 400 10 q 361 -7 384 -7 q 322 10 338 -7 q 306 50 306 26 q 322 88 306 72 q 361 104 338 104 q 400 88 384 104 q 416 50 416 72 q 400 10 416 26 m 83 50 q 100 88 83 72 q 139 104 116 104 q 178 88 162 104 q 195 50 195 72 q 178 10 195 26 q 139 -7 162 -7 q 100 10 116 -7 q 83 50 83 26 m 530 50 q 547 88 530 72 q 586 104 563 104 q 625 88 609 104 q 642 50 642 72 q 625 10 642 26 q 586 -7 609 -7 q 547 10 563 -7 q 530 50 530 26 z "},"‹":{"ha":513,"x_min":83,"x_max":431,"o":"m 431 98 l 319 98 l 83 366 l 83 428 l 319 694 l 431 694 l 167 397 l 167 396 l 431 98 z "},"›":{"ha":513,"x_min":83,"x_max":431,"o":"m 83 98 l 347 396 l 347 397 l 83 694 l 195 694 l 431 428 l 431 366 l 195 98 l 83 98 z "},"€":{"ha":1065,"x_min":41,"x_max":982,"o":"m 982 111 q 632 -17 826 -17 q 467 15 541 -17 q 341 102 392 47 q 259 227 291 158 q 214 375 227 296 l 45 375 l 45 450 l 205 450 l 204 488 q 212 587 204 537 l 41 587 l 41 663 l 231 663 q 290 790 252 732 q 383 893 328 848 q 515 964 438 939 q 684 990 592 990 q 856 963 777 990 q 982 886 935 936 l 982 789 q 846 878 917 848 q 684 907 776 907 q 448 840 540 907 q 317 663 356 774 l 625 663 l 625 587 l 296 587 q 288 488 288 540 l 289 450 l 628 450 l 628 375 l 297 375 q 335 254 309 309 q 401 157 361 199 q 500 90 441 114 q 632 66 559 66 q 697 71 665 66 q 754 82 729 75 q 805 100 779 88 q 848 120 831 111 q 887 145 865 130 q 921 171 909 161 q 953 196 932 180 q 982 220 974 213 l 982 111 z "},"™":{"ha":1120,"x_min":83,"x_max":1038,"o":"m 471 972 l 471 930 l 297 930 l 297 486 l 256 486 l 256 930 l 83 930 l 83 972 l 471 972 m 555 486 l 555 972 l 604 972 l 802 581 l 991 972 l 1038 972 l 1038 486 l 999 486 l 999 901 l 823 541 l 775 541 l 593 900 l 593 486 l 555 486 z "},"−":{"ha":861,"x_min":139,"x_max":722,"o":"m 722 493 l 722 410 l 139 410 l 139 493 l 722 493 z "}}}
